<?xml version="1.0" standalone="no"?>
<!DOCTYPE svg PUBLIC "-//W3C//DTD SVG 1.1//EN" "http://www.w3.org/Graphics/SVG/1.1/DTD/svg11.dtd" >
<svg xmlns="http://www.w3.org/2000/svg" xmlns:xlink="http://www.w3.org/1999/xlink" version="1.1">
<metadata>
Created by FontForge 20170910 at Mon Sep  5 10:57:40 2016
 By jimmywarting
Copyright \(c\) 2016 by Chris Simpson.
</metadata>
<defs>
<font id="Metropolis-BlackItalic" horiz-adv-x="676" >
  <font-face 
    font-family="Metropolis Black"
    font-weight="900"
    font-style="italic"
    font-stretch="normal"
    units-per-em="1000"
    panose-1="0 0 10 0 0 0 0 0 0 0"
    ascent="795"
    descent="-205"
    x-height="517"
    cap-height="687"
    bbox="-323 -306 1210 987"
    underline-thickness="20"
    underline-position="-133"
    slope="-11.75"
    stemh="152"
    stemv="184"
    unicode-range="U+0020-2212"
  />
<missing-glyph horiz-adv-x="500" 
d="M410 795v-1000h-317v1000h317zM333 728h-165v-33h65v-37h-66v-33h166v33h-66v37h66v33zM267 599h-100v-104h166v34h-66v70zM233 565v-36h-33v36h33zM333 468h-166v-33h66v-37h-66v-33h100v70h66v33zM333 408h-33v-66h-133v-34h166v100zM333 286h-100v-56h34v23h33v-47
h-100v80h-33v-113h166v113zM333 113h-166v-113h166v113zM300 80v-47h-100v47h100zM333 -23h-166v-33h70l-70 -47v-33h166v33h-102l70 47h32v33z" />
    <glyph glyph-name=".notdef" horiz-adv-x="500" 
d="M410 795v-1000h-317v1000h317zM333 728h-165v-33h65v-37h-66v-33h166v33h-66v37h66v33zM267 599h-100v-104h166v34h-66v70zM233 565v-36h-33v36h33zM333 468h-166v-33h66v-37h-66v-33h100v70h66v33zM333 408h-33v-66h-133v-34h166v100zM333 286h-100v-56h34v23h33v-47
h-100v80h-33v-113h166v113zM333 113h-166v-113h166v113zM300 80v-47h-100v47h100zM333 -23h-166v-33h70l-70 -47v-33h166v33h-102l70 47h32v33z" />
    <glyph glyph-name="A" unicode="A" horiz-adv-x="775" 
d="M505 0l-16 92h-239l-54 -92h-223l407 687h222l-2 -4l120 -683h-215zM335 235h128l-29 167z" />
    <glyph glyph-name="Aacute" unicode="&#xc1;" horiz-adv-x="775" 
d="M741 880l-180 -136h-131l146 164zM602 687l-2 -4l120 -683h-215l-16 92h-239l-54 -92h-223l407 687h222zM463 235l-29 167l-99 -167h128z" />
    <glyph glyph-name="Abreve" unicode="&#x102;" horiz-adv-x="775" 
d="M510 745c-62 0 -118 24 -156 71l89 74c22 -27 54 -43 88 -43s74 16 106 43l59 -74c-57 -47 -124 -71 -186 -71zM505 0l-16 92h-239l-54 -92h-223l407 687h222l-2 -4l120 -683h-215zM335 235h128l-29 167z" />
    <glyph glyph-name="Acircumflex" unicode="&#xc2;" horiz-adv-x="775" 
d="M527 811l-89 -67h-117l140 154h155l77 -154h-108zM505 0l-16 92h-239l-54 -92h-223l407 687h222l-2 -4l120 -683h-215zM335 235h128l-29 167z" />
    <glyph glyph-name="Adieresis" unicode="&#xc4;" horiz-adv-x="775" 
d="M410 745c-50 0 -81 36 -81 81c0 54 44 92 92 92c46 0 79 -37 79 -82c0 -52 -44 -91 -90 -91zM635 745c-49 0 -81 36 -81 82c0 53 45 91 92 91s79 -37 79 -81c0 -53 -44 -92 -90 -92zM602 687l-2 -4l120 -683h-215l-16 92h-239l-54 -92h-223l407 687h222zM463 235l-29 167
l-99 -167h128z" />
    <glyph glyph-name="Agrave" unicode="&#xc0;" horiz-adv-x="775" 
d="M541 744h-121l-124 136l167 28zM505 0l-16 92h-239l-54 -92h-223l407 687h222l-2 -4l120 -683h-215zM335 235h128l-29 167z" />
    <glyph glyph-name="Amacron" unicode="&#x100;" horiz-adv-x="775" 
d="M715 849l-22 -106h-369l22 106h369zM505 0l-16 92h-239l-54 -92h-223l407 687h222l-2 -4l120 -683h-215zM335 235h128l-29 167z" />
    <glyph glyph-name="Aogonek" unicode="&#x104;" horiz-adv-x="775" 
d="M735 -50l13 -93c-26 -20 -58 -30 -91 -30c-62 0 -101 37 -101 100c0 27 7 52 22 73h-73l-16 92h-239l-54 -92h-223l407 687h222l-2 -4l119 -680l8 -3c-30 0 -56 -21 -56 -45c0 -13 7 -21 20 -21c18 0 34 6 44 16zM335 235h128l-29 167z" />
    <glyph glyph-name="Aring" unicode="&#xc5;" horiz-adv-x="775" 
d="M509 745c-58 0 -99 41 -99 96c0 79 75 146 149 146c58 0 99 -41 99 -96c0 -78 -74 -146 -149 -146zM544 915c-30 0 -60 -27 -60 -58c0 -23 16 -40 40 -40c30 0 60 28 60 59c0 22 -17 39 -40 39zM505 0l-16 92h-239l-54 -92h-223l407 687h222l-2 -4l120 -683h-215z
M335 235h128l-29 167z" />
    <glyph glyph-name="Atilde" unicode="&#xc3;" horiz-adv-x="775" 
d="M465 782c-26 0 -46 -20 -58 -49l-86 27c30 95 70 134 137 134c60 0 104 -41 124 -41c26 0 47 21 58 49l87 -28c-30 -95 -71 -133 -137 -133c-62 0 -104 41 -125 41zM602 687l-2 -4l120 -683h-215l-16 92h-239l-54 -92h-223l407 687h222zM463 235l-29 167l-99 -167h128z
" />
    <glyph glyph-name="AE" unicode="&#xc6;" horiz-adv-x="1113" 
d="M1128 514h-359l-15 -77h326l-36 -173h-327l-18 -91h358l-36 -173h-553l19 92h-240l-72 -92h-228l540 687h677zM360 235h157l57 272z" />
    <glyph glyph-name="B" unicode="B" horiz-adv-x="711" 
d="M6 0l143 687h364c116 0 193 -64 193 -153c0 -79 -52 -146 -129 -180c57 -26 93 -80 93 -145c0 -133 -129 -209 -273 -209h-391zM287 420h124c53 0 90 30 90 73c-1 22 -17 31 -56 31h-137zM233 163h153c55 0 94 31 94 76c0 24 -17 34 -59 34h-165z" />
    <glyph glyph-name="C" unicode="C" horiz-adv-x="711" 
d="M362 -12c-170 0 -313 135 -313 310c0 210 207 401 430 401c118 0 217 -54 272 -126l-160 -114c-22 37 -64 64 -121 64c-115 0 -224 -109 -224 -221c0 -87 65 -138 131 -138c51 0 118 31 160 76l123 -136c-76 -68 -197 -116 -298 -116z" />
    <glyph glyph-name="Cacute" unicode="&#x106;" horiz-adv-x="711" 
d="M343 744l146 164l165 -28l-180 -136h-131zM362 -12c-170 0 -313 135 -313 310c0 210 207 401 430 401c118 0 217 -54 272 -126l-160 -114c-22 37 -64 64 -121 64c-115 0 -224 -109 -224 -221c0 -87 65 -138 131 -138c51 0 118 31 160 76l123 -136
c-76 -68 -197 -116 -298 -116z" />
    <glyph glyph-name="Ccaron" unicode="&#x10c;" horiz-adv-x="711" 
d="M390 744l-76 154h108l57 -67l90 67h117l-141 -154h-155zM362 -12c-170 0 -313 135 -313 310c0 210 207 401 430 401c118 0 217 -54 272 -126l-160 -114c-22 37 -64 64 -121 64c-115 0 -224 -109 -224 -221c0 -87 65 -138 131 -138c51 0 118 31 160 76l123 -136
c-76 -68 -197 -116 -298 -116z" />
    <glyph glyph-name="Ccedilla" unicode="&#xc7;" horiz-adv-x="711" 
d="M660 104c-66 -59 -167 -103 -258 -114l-22 -34c34 -7 56 -32 56 -65c0 -60 -52 -91 -120 -91c-44 0 -79 17 -101 34l35 59c15 -14 33 -18 47 -18c33 0 57 13 57 32c0 9 -5 15 -14 15c-11 0 -25 -5 -36 -13l-26 29l33 54c-147 24 -262 149 -262 306c0 210 207 401 430 401
c118 0 217 -54 272 -126l-160 -114c-22 37 -64 64 -121 64c-115 0 -224 -109 -224 -221c0 -87 65 -138 131 -138c51 0 118 31 160 76z" />
    <glyph glyph-name="D" unicode="D" horiz-adv-x="760" 
d="M6 0l143 687h250c205 0 350 -119 350 -287c0 -217 -219 -400 -480 -400h-263zM237 176h88c123 0 226 99 226 217c0 69 -60 118 -144 118h-100z" />
    <glyph glyph-name="Eth" unicode="&#xd0;" horiz-adv-x="818" 
d="M457 687c205 0 350 -119 350 -287c0 -217 -219 -400 -480 -400h-263l54 258h-78l36 173h78l53 256h250zM383 176c123 0 226 99 226 217c0 69 -60 118 -144 118h-100l-17 -80h127l-37 -173h-126l-17 -82h88z" />
    <glyph glyph-name="Dcaron" unicode="&#x10e;" horiz-adv-x="760" 
d="M336 744l-76 154h108l57 -67l90 67h117l-141 -154h-155zM6 0l143 687h250c205 0 350 -119 350 -287c0 -217 -219 -400 -480 -400h-263zM237 176h88c123 0 226 99 226 217c0 69 -60 118 -144 118h-100z" />
    <glyph glyph-name="Dcroat" unicode="&#x110;" horiz-adv-x="818" 
d="M457 687c205 0 350 -119 350 -287c0 -217 -219 -400 -480 -400h-263l54 258h-78l36 173h78l53 256h250zM383 176c123 0 226 99 226 217c0 69 -60 118 -144 118h-100l-17 -80h127l-37 -173h-126l-17 -82h88z" />
    <glyph glyph-name="E" unicode="E" horiz-adv-x="651" 
d="M666 514h-359l-15 -77h326l-36 -173h-327l-18 -91h358l-36 -173h-553l143 687h553z" />
    <glyph glyph-name="Eacute" unicode="&#xc9;" horiz-adv-x="651" 
d="M627 880l-180 -136h-131l146 164zM666 514h-359l-15 -77h326l-36 -173h-327l-18 -91h358l-36 -173h-553l143 687h553z" />
    <glyph glyph-name="Ecaron" unicode="&#x11a;" horiz-adv-x="651" 
d="M518 744h-155l-76 154h108l57 -67l90 67h117zM666 514h-359l-15 -77h326l-36 -173h-327l-18 -91h358l-36 -173h-553l143 687h553z" />
    <glyph glyph-name="Ecircumflex" unicode="&#xca;" horiz-adv-x="651" 
d="M456 811l-89 -67h-117l140 154h155l77 -154h-108zM666 514h-359l-15 -77h326l-36 -173h-327l-18 -91h358l-36 -173h-553l143 687h553z" />
    <glyph glyph-name="Edieresis" unicode="&#xcb;" horiz-adv-x="651" 
d="M339 745c-50 0 -81 36 -81 81c0 54 44 92 92 92c46 0 79 -37 79 -82c0 -52 -44 -91 -90 -91zM564 745c-49 0 -81 36 -81 82c0 53 45 91 92 91s79 -37 79 -81c0 -53 -44 -92 -90 -92zM666 514h-359l-15 -77h326l-36 -173h-327l-18 -91h358l-36 -173h-553l143 687h553z" />
    <glyph glyph-name="Edotaccent" unicode="&#x116;" horiz-adv-x="651" 
d="M451 745c-50 0 -81 36 -81 81c0 54 44 92 92 92c46 0 79 -37 79 -82c0 -52 -44 -91 -90 -91zM666 514h-359l-15 -77h326l-36 -173h-327l-18 -91h358l-36 -173h-553l143 687h553z" />
    <glyph glyph-name="uni1EB8" unicode="&#x1eb8;" horiz-adv-x="651" 
d="M666 514h-359l-15 -77h326l-36 -173h-327l-18 -91h358l-36 -173h-553l143 687h553zM264 -21c46 0 79 -37 79 -82c0 -52 -44 -91 -90 -91c-50 0 -81 36 -81 81c0 54 44 92 92 92z" />
    <glyph glyph-name="Egrave" unicode="&#xc8;" horiz-adv-x="651" 
d="M544 744h-121l-124 136l167 28zM666 514h-359l-15 -77h326l-36 -173h-327l-18 -91h358l-36 -173h-553l143 687h553z" />
    <glyph glyph-name="Emacron" unicode="&#x112;" horiz-adv-x="651" 
d="M644 849l-22 -106h-369l22 106h369zM666 514h-359l-15 -77h326l-36 -173h-327l-18 -91h358l-36 -173h-553l143 687h553z" />
    <glyph glyph-name="Eogonek" unicode="&#x118;" horiz-adv-x="651" 
d="M666 514h-359l-15 -77h326l-36 -173h-327l-18 -91h358l-36 -173h-218c-30 0 -56 -21 -56 -45c0 -13 7 -21 20 -21c18 0 34 6 44 16l13 -93c-26 -20 -58 -30 -91 -30c-62 0 -101 37 -101 100c0 27 7 52 22 73h-186l143 687h553z" />
    <glyph glyph-name="uni1EBC" unicode="&#x1ebc;" horiz-adv-x="651" 
d="M394 782c-26 0 -46 -20 -58 -49l-86 27c30 95 70 134 137 134c60 0 104 -41 124 -41c26 0 47 21 58 49l87 -28c-30 -95 -71 -133 -137 -133c-62 0 -104 41 -125 41zM666 514h-359l-15 -77h326l-36 -173h-327l-18 -91h358l-36 -173h-553l143 687h553z" />
    <glyph glyph-name="F" unicode="F" horiz-adv-x="651" 
d="M666 514h-359l-19 -97h326l-36 -173h-328l-50 -244h-194l143 687h553z" />
    <glyph glyph-name="G" unicode="G" horiz-adv-x="745" 
d="M378 253l30 143h322l-61 -292c-87 -77 -198 -116 -300 -116c-187 0 -321 133 -321 302c0 221 225 409 444 409c115 0 211 -50 268 -126l-160 -114c-25 44 -71 64 -119 64c-119 0 -236 -118 -236 -227c0 -75 56 -132 136 -132c42 0 83 15 119 38l10 51h-132z" />
    <glyph glyph-name="Gbreve" unicode="&#x11e;" horiz-adv-x="745" 
d="M507 745c-62 0 -118 24 -156 71l89 74c22 -27 54 -43 88 -43s74 16 106 43l59 -74c-57 -47 -124 -71 -186 -71zM378 253l30 143h322l-61 -292c-87 -77 -198 -116 -300 -116c-187 0 -321 133 -321 302c0 221 225 409 444 409c115 0 211 -50 268 -126l-160 -114
c-25 44 -71 64 -119 64c-119 0 -236 -118 -236 -227c0 -75 56 -132 136 -132c42 0 83 15 119 38l10 51h-132z" />
    <glyph glyph-name="Gcommaaccent" unicode="&#x122;" horiz-adv-x="745" 
d="M378 253l30 143h322l-61 -292c-87 -77 -198 -116 -300 -116c-187 0 -321 133 -321 302c0 221 225 409 444 409c115 0 211 -50 268 -126l-160 -114c-25 44 -71 64 -119 64c-119 0 -236 -118 -236 -227c0 -75 56 -132 136 -132c42 0 83 15 119 38l10 51h-132zM347 -23
c47 0 77 -39 77 -94c0 -76 -57 -142 -123 -189l-48 46c30 20 56 48 73 72c-48 0 -67 32 -67 73c0 50 42 92 88 92z" />
    <glyph glyph-name="H" unicode="H" horiz-adv-x="759" 
d="M594 687h194l-143 -687h-193l53 264h-251l-54 -264h-194l143 687h194l-50 -250h251z" />
    <glyph glyph-name="I" unicode="I" horiz-adv-x="321" 
d="M10 0l143 687h194l-143 -687h-194z" />
    <glyph glyph-name="Iacute" unicode="&#xcd;" horiz-adv-x="321" 
d="M187 744l146 164l165 -28l-180 -136h-131zM10 0l143 687h194l-143 -687h-194z" />
    <glyph glyph-name="Icircumflex" unicode="&#xce;" horiz-adv-x="321" 
d="M74 744l140 154h155l77 -154h-108l-58 67l-89 -67h-117zM10 0l143 687h194l-143 -687h-194z" />
    <glyph glyph-name="Idieresis" unicode="&#xcf;" horiz-adv-x="321" 
d="M163 745c-50 0 -81 36 -81 81c0 54 44 92 92 92c46 0 79 -37 79 -82c0 -52 -44 -91 -90 -91zM388 745c-49 0 -81 36 -81 82c0 53 45 91 92 91s79 -37 79 -81c0 -53 -44 -92 -90 -92zM10 0l143 687h194l-143 -687h-194z" />
    <glyph glyph-name="Idotaccent" unicode="&#x130;" horiz-adv-x="321" 
d="M275 745c-50 0 -81 36 -81 81c0 54 44 92 92 92c46 0 79 -37 79 -82c0 -52 -44 -91 -90 -91zM10 0l143 687h194l-143 -687h-194z" />
    <glyph glyph-name="Igrave" unicode="&#xcc;" horiz-adv-x="321" 
d="M204 744l-124 136l167 28l78 -164h-121zM10 0l143 687h194l-143 -687h-194z" />
    <glyph glyph-name="Imacron" unicode="&#x12a;" horiz-adv-x="321" 
d="M77 743l22 106h369l-22 -106h-369zM10 0l143 687h194l-143 -687h-194z" />
    <glyph glyph-name="Iogonek" unicode="&#x12e;" horiz-adv-x="321" 
d="M175 -66c18 0 34 6 44 16l13 -93c-26 -20 -58 -30 -91 -30c-62 0 -101 37 -101 100c0 27 7 52 22 73h-52l143 687h194l-142 -684l6 -3c-30 0 -56 -21 -56 -45c0 -13 7 -21 20 -21z" />
    <glyph glyph-name="J" unicode="J" horiz-adv-x="546" 
d="M200 -12c-99 0 -191 53 -228 120l143 109c11 -35 42 -53 71 -53c53 0 102 41 112 88l90 435h194l-98 -471c-28 -138 -144 -228 -284 -228z" />
    <glyph glyph-name="K" unicode="K" horiz-adv-x="717" 
d="M6 0l143 687h194l-52 -243l268 243h247l-321 -292l187 -395h-221l-121 260l-89 -78l-41 -182h-194z" />
    <glyph glyph-name="Kcommaaccent" unicode="&#x136;" horiz-adv-x="717" 
d="M6 0l143 687h194l-52 -243l268 243h247l-321 -292l187 -395h-221l-121 260l-89 -78l-41 -182h-194zM261 -306l-48 46c30 20 56 48 73 72c-48 0 -67 32 -67 73c0 50 42 92 88 92c47 0 77 -39 77 -94c0 -76 -57 -142 -123 -189z" />
    <glyph glyph-name="L" unicode="L" horiz-adv-x="597" 
d="M238 173h318l-36 -173h-514l143 687h194z" />
    <glyph glyph-name="Lacute" unicode="&#x139;" horiz-adv-x="597" 
d="M504 880l-180 -136h-131l146 164zM238 173h318l-36 -173h-514l143 687h194z" />
    <glyph glyph-name="Lcaron" unicode="&#x13d;" horiz-adv-x="597" 
d="M382 461c30 20 56 48 73 72c-48 0 -67 32 -67 73c0 50 42 92 88 92c47 0 77 -39 77 -94c0 -76 -57 -142 -123 -189zM238 173h318l-36 -173h-514l143 687h194z" />
    <glyph glyph-name="Lslash" unicode="&#x141;" horiz-adv-x="623" 
d="M264 173h318l-36 -173h-514l44 210l-72 -32l32 167l75 33l64 309h194l-43 -213l114 51l-33 -167l-115 -52z" />
    <glyph glyph-name="M" unicode="M" horiz-adv-x="876" 
d="M6 0l143 687h192l114 -328l254 328h196l-143 -687h-194l79 368l-250 -328l-118 328l-79 -368h-194z" />
    <glyph glyph-name="N" unicode="N" horiz-adv-x="776" 
d="M6 0l143 687h192l191 -368l79 368h194l-143 -687h-191l-192 368l-79 -368h-194z" />
    <glyph glyph-name="Nacute" unicode="&#x143;" horiz-adv-x="776" 
d="M366 744l146 164l165 -28l-180 -136h-131zM6 0l143 687h192l191 -368l79 368h194l-143 -687h-191l-192 368l-79 -368h-194z" />
    <glyph glyph-name="Ncaron" unicode="&#x147;" horiz-adv-x="776" 
d="M413 744l-76 154h108l57 -67l90 67h117l-141 -154h-155zM6 0l143 687h192l191 -368l79 368h194l-143 -687h-191l-192 368l-79 -368h-194z" />
    <glyph glyph-name="Ncommaaccent" unicode="&#x145;" horiz-adv-x="776" 
d="M6 0l143 687h192l191 -368l79 368h194l-143 -687h-191l-192 368l-79 -368h-194zM272 -306l-48 46c30 20 56 48 73 72c-48 0 -67 32 -67 73c0 50 42 92 88 92c47 0 77 -39 77 -94c0 -76 -57 -142 -123 -189z" />
    <glyph glyph-name="Ntilde" unicode="&#xd1;" horiz-adv-x="776" 
d="M569 741c-62 0 -104 41 -125 41c-26 0 -46 -20 -58 -49l-86 27c30 95 70 134 137 134c60 0 104 -41 124 -41c26 0 47 21 58 49l87 -28c-30 -95 -71 -133 -137 -133zM6 0l143 687h192l191 -368l79 368h194l-143 -687h-191l-192 368l-79 -368h-194z" />
    <glyph glyph-name="O" unicode="O" horiz-adv-x="814" 
d="M363 -12c-184 0 -316 133 -316 301c0 221 222 410 439 410c185 0 317 -132 317 -300c0 -221 -222 -411 -440 -411zM375 164c117 0 231 120 231 228c0 75 -55 131 -131 131c-117 0 -231 -120 -231 -228c0 -75 54 -131 131 -131z" />
    <glyph glyph-name="Oacute" unicode="&#xd3;" horiz-adv-x="814" 
d="M426 744l146 164l165 -28l-180 -136h-131zM363 -12c-184 0 -316 133 -316 301c0 221 222 410 439 410c185 0 317 -132 317 -300c0 -221 -222 -411 -440 -411zM375 164c117 0 231 120 231 228c0 75 -55 131 -131 131c-117 0 -231 -120 -231 -228c0 -75 54 -131 131 -131z
" />
    <glyph glyph-name="Ocircumflex" unicode="&#xd4;" horiz-adv-x="814" 
d="M308 744l140 154h155l77 -154h-108l-58 67l-89 -67h-117zM363 -12c-184 0 -316 133 -316 301c0 221 222 410 439 410c185 0 317 -132 317 -300c0 -221 -222 -411 -440 -411zM375 164c117 0 231 120 231 228c0 75 -55 131 -131 131c-117 0 -231 -120 -231 -228
c0 -75 54 -131 131 -131z" />
    <glyph glyph-name="Odieresis" unicode="&#xd6;" horiz-adv-x="814" 
d="M397 745c-50 0 -81 36 -81 81c0 54 44 92 92 92c46 0 79 -37 79 -82c0 -52 -44 -91 -90 -91zM622 745c-49 0 -81 36 -81 82c0 53 45 91 92 91s79 -37 79 -81c0 -53 -44 -92 -90 -92zM363 -12c-184 0 -316 133 -316 301c0 221 222 410 439 410c185 0 317 -132 317 -300
c0 -221 -222 -411 -440 -411zM375 164c117 0 231 120 231 228c0 75 -55 131 -131 131c-117 0 -231 -120 -231 -228c0 -75 54 -131 131 -131z" />
    <glyph glyph-name="Ograve" unicode="&#xd2;" horiz-adv-x="814" 
d="M441 744l-124 136l167 28l78 -164h-121zM363 -12c-184 0 -316 133 -316 301c0 221 222 410 439 410c185 0 317 -132 317 -300c0 -221 -222 -411 -440 -411zM375 164c117 0 231 120 231 228c0 75 -55 131 -131 131c-117 0 -231 -120 -231 -228c0 -75 54 -131 131 -131z
" />
    <glyph glyph-name="Ohungarumlaut" unicode="&#x150;" horiz-adv-x="814" 
d="M343 744l146 164l165 -28l-180 -136h-131zM601 744l146 164l165 -28l-180 -136h-131zM363 -12c-184 0 -316 133 -316 301c0 221 222 410 439 410c185 0 317 -132 317 -300c0 -221 -222 -411 -440 -411zM375 164c117 0 231 120 231 228c0 75 -55 131 -131 131
c-117 0 -231 -120 -231 -228c0 -75 54 -131 131 -131z" />
    <glyph glyph-name="Omacron" unicode="&#x14c;" horiz-adv-x="814" 
d="M311 743l22 106h369l-22 -106h-369zM363 -12c-184 0 -316 133 -316 301c0 221 222 410 439 410c185 0 317 -132 317 -300c0 -221 -222 -411 -440 -411zM375 164c117 0 231 120 231 228c0 75 -55 131 -131 131c-117 0 -231 -120 -231 -228c0 -75 54 -131 131 -131z" />
    <glyph glyph-name="Oslash" unicode="&#xd8;" horiz-adv-x="814" 
d="M867 687l-119 -115c35 -48 55 -108 55 -173c0 -221 -222 -411 -440 -411c-66 0 -125 17 -173 46l-36 -34h-165l116 111c-37 50 -58 111 -58 178c0 221 222 410 439 410c68 0 128 -18 178 -48l38 36h165zM244 295c0 -15 2 -30 6 -43l273 263c-15 5 -31 8 -48 8
c-117 0 -231 -120 -231 -228zM606 392c0 14 -2 26 -5 39l-270 -260c14 -5 28 -7 44 -7c117 0 231 120 231 228z" />
    <glyph glyph-name="Otilde" unicode="&#xd5;" horiz-adv-x="814" 
d="M577 741c-62 0 -104 41 -125 41c-26 0 -46 -20 -58 -49l-86 27c30 95 70 134 137 134c60 0 104 -41 124 -41c26 0 47 21 58 49l87 -28c-30 -95 -71 -133 -137 -133zM363 -12c-184 0 -316 133 -316 301c0 221 222 410 439 410c185 0 317 -132 317 -300
c0 -221 -222 -411 -440 -411zM375 164c117 0 231 120 231 228c0 75 -55 131 -131 131c-117 0 -231 -120 -231 -228c0 -75 54 -131 131 -131z" />
    <glyph glyph-name="OE" unicode="&#x152;" horiz-adv-x="1040" 
d="M1055 514h-359l-15 -77h326l-36 -173h-327l-18 -91h358l-36 -173h-587c-179 0 -313 124 -313 291c0 219 217 396 443 396h600zM385 176h47l69 335h-34c-110 0 -221 -105 -221 -214c0 -73 57 -121 139 -121z" />
    <glyph glyph-name="P" unicode="P" horiz-adv-x="670" 
d="M6 0l143 687h323c134 0 222 -81 222 -200c0 -163 -137 -280 -309 -280h-141l-44 -207h-194zM280 383h113c51 0 103 46 103 88c0 25 -23 40 -64 40h-125z" />
    <glyph glyph-name="Thorn" unicode="&#xde;" horiz-adv-x="671" 
d="M6 0l143 687h189l-21 -102h134c134 0 222 -81 222 -200c0 -163 -137 -280 -309 -280h-142l-22 -105h-194zM259 281h113c52 0 102 46 102 88c0 25 -22 40 -63 40h-125z" />
    <glyph glyph-name="Q" unicode="Q" horiz-adv-x="814" 
d="M803 399c0 -92 -38 -178 -99 -248l44 -45l-109 -106l-51 53c-69 -41 -147 -65 -225 -65c-184 0 -316 133 -316 301c0 221 222 410 439 410c185 0 317 -132 317 -300zM375 164c30 0 59 8 86 21l-47 49l109 106l51 -53c20 33 32 70 32 105c0 75 -55 131 -131 131
c-117 0 -231 -120 -231 -228c0 -75 54 -131 131 -131z" />
    <glyph glyph-name="R" unicode="R" horiz-adv-x="721" 
d="M694 487c0 -120 -75 -216 -183 -257l139 -230h-216l-125 207h-65l-44 -207h-194l143 687h323c134 0 222 -81 222 -200zM307 511l-27 -128h113c51 0 103 46 103 88c0 25 -23 40 -64 40h-125z" />
    <glyph glyph-name="Racute" unicode="&#x154;" horiz-adv-x="721" 
d="M649 880l-180 -136h-131l146 164zM694 487c0 -120 -75 -216 -183 -257l139 -230h-216l-125 207h-65l-44 -207h-194l143 687h323c134 0 222 -81 222 -200zM307 511l-27 -128h113c51 0 103 46 103 88c0 25 -23 40 -64 40h-125z" />
    <glyph glyph-name="Rcaron" unicode="&#x158;" horiz-adv-x="721" 
d="M540 744h-155l-76 154h108l57 -67l90 67h117zM694 487c0 -120 -75 -216 -183 -257l139 -230h-216l-125 207h-65l-44 -207h-194l143 687h323c134 0 222 -81 222 -200zM307 511l-27 -128h113c51 0 103 46 103 88c0 25 -23 40 -64 40h-125z" />
    <glyph glyph-name="Rcommaaccent" unicode="&#x156;" horiz-adv-x="721" 
d="M694 487c0 -120 -75 -216 -183 -257l139 -230h-216l-125 207h-65l-44 -207h-194l143 687h323c134 0 222 -81 222 -200zM307 511l-27 -128h113c51 0 103 46 103 88c0 25 -23 40 -64 40h-125zM290 -23c47 0 77 -39 77 -94c0 -76 -57 -142 -123 -189l-48 46
c30 20 56 48 73 72c-48 0 -67 32 -67 73c0 50 42 92 88 92z" />
    <glyph glyph-name="S" unicode="S" horiz-adv-x="647" 
d="M285 -12c-124 0 -237 46 -308 121l126 119c58 -55 133 -79 196 -79c78 0 115 37 115 67c0 22 -19 24 -98 44c-131 33 -234 60 -234 188c0 141 126 251 316 251c104 0 200 -33 269 -98l-116 -128c-57 49 -127 65 -171 65c-67 0 -100 -38 -100 -67c0 -25 24 -30 99 -47
c160 -37 232 -75 232 -184c0 -153 -144 -252 -326 -252z" />
    <glyph glyph-name="Sacute" unicode="&#x15a;" horiz-adv-x="647" 
d="M286 744l146 164l165 -28l-180 -136h-131zM285 -12c-124 0 -237 46 -308 121l126 119c58 -55 133 -79 196 -79c78 0 115 37 115 67c0 22 -19 24 -98 44c-131 33 -234 60 -234 188c0 141 126 251 316 251c104 0 200 -33 269 -98l-116 -128c-57 49 -127 65 -171 65
c-67 0 -100 -38 -100 -67c0 -25 24 -30 99 -47c160 -37 232 -75 232 -184c0 -153 -144 -252 -326 -252z" />
    <glyph glyph-name="Scaron" unicode="&#x160;" horiz-adv-x="647" 
d="M333 744l-76 154h108l57 -67l90 67h117l-141 -154h-155zM285 -12c-124 0 -237 46 -308 121l126 119c58 -55 133 -79 196 -79c78 0 115 37 115 67c0 22 -19 24 -98 44c-131 33 -234 60 -234 188c0 141 126 251 316 251c104 0 200 -33 269 -98l-116 -128
c-57 49 -127 65 -171 65c-67 0 -100 -38 -100 -67c0 -25 24 -30 99 -47c160 -37 232 -75 232 -184c0 -153 -144 -252 -326 -252z" />
    <glyph glyph-name="Scedilla" unicode="&#x15e;" horiz-adv-x="647" 
d="M379 424c160 -37 232 -75 232 -184c0 -144 -127 -240 -293 -251l-21 -33c34 -7 56 -32 56 -65c0 -60 -52 -91 -120 -91c-44 0 -79 17 -101 34l35 59c15 -14 33 -18 47 -18c33 0 57 13 57 32c0 9 -5 15 -14 15c-11 0 -25 -5 -36 -13l-26 29l32 53
c-101 12 -190 55 -250 118l126 119c58 -55 133 -79 196 -79c78 0 115 37 115 67c0 22 -19 24 -98 44c-131 33 -234 60 -234 188c0 141 126 251 316 251c104 0 200 -33 269 -98l-116 -128c-57 49 -127 65 -171 65c-67 0 -100 -38 -100 -67c0 -25 24 -30 99 -47z" />
    <glyph glyph-name="T" unicode="T" horiz-adv-x="645" 
d="M172 0l107 514h-203l36 173h600l-36 -173h-203l-107 -514h-194z" />
    <glyph glyph-name="Tcaron" unicode="&#x164;" horiz-adv-x="645" 
d="M349 744l-76 154h108l57 -67l90 67h117l-141 -154h-155zM172 0l107 514h-203l36 173h600l-36 -173h-203l-107 -514h-194z" />
    <glyph glyph-name="uni0162" unicode="&#x162;" horiz-adv-x="645" 
d="M112 687h600l-36 -173h-203l-107 -514h-48l-28 -44c34 -7 56 -32 56 -65c0 -60 -52 -91 -120 -91c-44 0 -79 17 -101 34l35 59c15 -14 33 -18 47 -18c33 0 57 13 57 32c0 9 -5 15 -14 15c-11 0 -25 -5 -36 -13l-26 29l37 62h-53l107 514h-203z" />
    <glyph glyph-name="U" unicode="U" horiz-adv-x="761" 
d="M336 -12c-198 0 -310 139 -272 325l78 374h194l-79 -380c-18 -88 19 -143 91 -143c84 0 160 71 179 159l75 364h194l-81 -390c-38 -186 -193 -309 -379 -309z" />
    <glyph glyph-name="Uacute" unicode="&#xda;" horiz-adv-x="761" 
d="M359 744l146 164l165 -28l-180 -136h-131zM336 -12c-198 0 -310 139 -272 325l78 374h194l-79 -380c-18 -88 19 -143 91 -143c84 0 160 71 179 159l75 364h194l-81 -390c-38 -186 -193 -309 -379 -309z" />
    <glyph glyph-name="Ucircumflex" unicode="&#xdb;" horiz-adv-x="761" 
d="M293 744l140 154h155l77 -154h-108l-58 67l-89 -67h-117zM336 -12c-198 0 -310 139 -272 325l78 374h194l-79 -380c-18 -88 19 -143 91 -143c84 0 160 71 179 159l75 364h194l-81 -390c-38 -186 -193 -309 -379 -309z" />
    <glyph glyph-name="Udieresis" unicode="&#xdc;" horiz-adv-x="761" 
d="M382 745c-50 0 -81 36 -81 81c0 54 44 92 92 92c46 0 79 -37 79 -82c0 -52 -44 -91 -90 -91zM607 745c-49 0 -81 36 -81 82c0 53 45 91 92 91s79 -37 79 -81c0 -53 -44 -92 -90 -92zM336 -12c-198 0 -310 139 -272 325l78 374h194l-79 -380c-18 -88 19 -143 91 -143
c84 0 160 71 179 159l75 364h194l-81 -390c-38 -186 -193 -309 -379 -309z" />
    <glyph glyph-name="Ugrave" unicode="&#xd9;" horiz-adv-x="761" 
d="M466 744l-124 136l167 28l78 -164h-121zM336 -12c-198 0 -310 139 -272 325l78 374h194l-79 -380c-18 -88 19 -143 91 -143c84 0 160 71 179 159l75 364h194l-81 -390c-38 -186 -193 -309 -379 -309z" />
    <glyph glyph-name="Uhungarumlaut" unicode="&#x170;" horiz-adv-x="761" 
d="M210 744l146 164l165 -28l-180 -136h-131zM468 744l146 164l165 -28l-180 -136h-131zM336 -12c-198 0 -310 139 -272 325l78 374h194l-79 -380c-18 -88 19 -143 91 -143c84 0 160 71 179 159l75 364h194l-81 -390c-38 -186 -193 -309 -379 -309z" />
    <glyph glyph-name="Umacron" unicode="&#x16a;" horiz-adv-x="761" 
d="M296 743l22 106h369l-22 -106h-369zM336 -12c-198 0 -310 139 -272 325l78 374h194l-79 -380c-18 -88 19 -143 91 -143c84 0 160 71 179 159l75 364h194l-81 -390c-38 -186 -193 -309 -379 -309z" />
    <glyph glyph-name="Uogonek" unicode="&#x172;" horiz-adv-x="761" 
d="M602 687h194l-81 -390c-38 -186 -193 -309 -379 -309c-7 0 -14 0 -21 1c-11 -9 -19 -21 -19 -34s7 -21 20 -21c18 0 34 6 44 16l13 -93c-26 -20 -58 -30 -91 -30c-62 0 -101 37 -101 100c0 32 10 60 30 83c-118 47 -176 161 -147 303l78 374h194l-79 -380
c-18 -88 19 -143 91 -143c84 0 160 71 179 159z" />
    <glyph glyph-name="Uring" unicode="&#x16e;" horiz-adv-x="761" 
d="M481 745c-58 0 -99 41 -99 96c0 79 75 146 149 146c58 0 99 -41 99 -96c0 -78 -74 -146 -149 -146zM496 817c30 0 60 28 60 59c0 22 -17 39 -40 39c-30 0 -60 -27 -60 -58c0 -23 16 -40 40 -40zM336 -12c-198 0 -310 139 -272 325l78 374h194l-79 -380
c-18 -88 19 -143 91 -143c84 0 160 71 179 159l75 364h194l-81 -390c-38 -186 -193 -309 -379 -309z" />
    <glyph glyph-name="V" unicode="V" horiz-adv-x="749" 
d="M614 687h223l-407 -687h-222l2 4l-120 683h215l71 -402z" />
    <glyph glyph-name="W" unicode="W" horiz-adv-x="1076" 
d="M145 0l-48 687h206v-397l217 397h209l48 -397l168 397h212l-333 -687h-196l-58 397l-229 -397h-196z" />
    <glyph glyph-name="Wacute" unicode="&#x1e82;" horiz-adv-x="1076" 
d="M577 744l146 164l165 -28l-180 -136h-131zM145 0l-48 687h206v-397l217 397h209l48 -397l168 397h212l-333 -687h-196l-58 397l-229 -397h-196z" />
    <glyph glyph-name="Wcircumflex" unicode="&#x174;" horiz-adv-x="1076" 
d="M449 744l140 154h155l77 -154h-108l-58 67l-89 -67h-117zM145 0l-48 687h206v-397l217 397h209l48 -397l168 397h212l-333 -687h-196l-58 397l-229 -397h-196z" />
    <glyph glyph-name="Wdieresis" unicode="&#x1e84;" horiz-adv-x="1076" 
d="M538 745c-50 0 -81 36 -81 81c0 54 44 92 92 92c46 0 79 -37 79 -82c0 -52 -44 -91 -90 -91zM763 745c-49 0 -81 36 -81 82c0 53 45 91 92 91s79 -37 79 -81c0 -53 -44 -92 -90 -92zM145 0l-48 687h206v-397l217 397h209l48 -397l168 397h212l-333 -687h-196l-58 397
l-229 -397h-196z" />
    <glyph glyph-name="Wgrave" unicode="&#x1e80;" horiz-adv-x="1076" 
d="M568 744l-124 136l167 28l78 -164h-121zM145 0l-48 687h206v-397l217 397h209l48 -397l168 397h212l-333 -687h-196l-58 397l-229 -397h-196z" />
    <glyph glyph-name="X" unicode="X" horiz-adv-x="738" 
d="M823 687l-324 -351l168 -336h-218l-91 182l-168 -182h-240l324 351l-168 336h218l91 -182l168 182h240z" />
    <glyph glyph-name="Y" unicode="Y" horiz-adv-x="709" 
d="M201 0l50 226l-168 461h180l106 -293l217 293h218l-359 -461l-50 -226h-194z" />
    <glyph glyph-name="Yacute" unicode="&#xdd;" horiz-adv-x="709" 
d="M315 744l146 164l165 -28l-180 -136h-131zM201 0l50 226l-168 461h180l106 -293l217 293h218l-359 -461l-50 -226h-194z" />
    <glyph glyph-name="Ycircumflex" unicode="&#x176;" horiz-adv-x="709" 
d="M249 744l140 154h155l77 -154h-108l-58 67l-89 -67h-117zM201 0l50 226l-168 461h180l106 -293l217 293h218l-359 -461l-50 -226h-194z" />
    <glyph glyph-name="Ydieresis" unicode="&#x178;" horiz-adv-x="709" 
d="M338 745c-50 0 -81 36 -81 81c0 54 44 92 92 92c46 0 79 -37 79 -82c0 -52 -44 -91 -90 -91zM563 745c-49 0 -81 36 -81 82c0 53 45 91 92 91s79 -37 79 -81c0 -53 -44 -92 -90 -92zM201 0l50 226l-168 461h180l106 -293l217 293h218l-359 -461l-50 -226h-194z" />
    <glyph glyph-name="Ygrave" unicode="&#x1ef2;" horiz-adv-x="709" 
d="M422 744l-124 136l167 28l78 -164h-121zM201 0l50 226l-168 461h180l106 -293l217 293h218l-359 -461l-50 -226h-194z" />
    <glyph glyph-name="Z" unicode="Z" horiz-adv-x="667" 
d="M-10 0l26 145l403 369h-316l36 173h584l-28 -145l-400 -369h326l-36 -173h-595z" />
    <glyph glyph-name="Zacute" unicode="&#x179;" horiz-adv-x="667" 
d="M321 744l146 164l165 -28l-180 -136h-131zM-10 0l26 145l403 369h-316l36 173h584l-28 -145l-400 -369h326l-36 -173h-595z" />
    <glyph glyph-name="Zcaron" unicode="&#x17d;" horiz-adv-x="667" 
d="M368 744l-76 154h108l57 -67l90 67h117l-141 -154h-155zM-10 0l26 145l403 369h-316l36 173h584l-28 -145l-400 -369h326l-36 -173h-595z" />
    <glyph glyph-name="Zdotaccent" unicode="&#x17b;" horiz-adv-x="667" 
d="M456 745c-50 0 -81 36 -81 81c0 54 44 92 92 92c46 0 79 -37 79 -82c0 -52 -44 -91 -90 -91zM-10 0l26 145l403 369h-316l36 173h584l-28 -145l-400 -369h326l-36 -173h-595z" />
    <glyph glyph-name="a" unicode="a" 
d="M486 517h193l-108 -517h-193l11 52c-46 -40 -103 -64 -167 -64c-122 0 -198 86 -198 212c0 169 120 329 286 329c72 0 128 -31 161 -84zM208 221c0 -45 31 -73 84 -73c80 0 145 78 145 150c0 44 -28 71 -74 71c-84 0 -155 -71 -155 -148z" />
    <glyph glyph-name="aacute" unicode="&#xe1;" 
d="M584 710l-180 -136h-131l146 164zM486 517h193l-108 -517h-193l11 52c-46 -40 -103 -64 -167 -64c-122 0 -198 86 -198 212c0 169 120 329 286 329c72 0 128 -31 161 -84zM208 221c0 -45 31 -73 84 -73c80 0 145 78 145 150c0 44 -28 71 -74 71c-84 0 -155 -71 -155 -148
z" />
    <glyph glyph-name="abreve" unicode="&#x103;" 
d="M396 575c-62 0 -118 24 -156 71l89 74c22 -27 54 -43 88 -43s74 16 106 43l59 -74c-57 -47 -124 -71 -186 -71zM486 517h193l-108 -517h-193l11 52c-46 -40 -103 -64 -167 -64c-122 0 -198 86 -198 212c0 169 120 329 286 329c72 0 128 -31 161 -84zM208 221
c0 -45 31 -73 84 -73c80 0 145 78 145 150c0 44 -28 71 -74 71c-84 0 -155 -71 -155 -148z" />
    <glyph glyph-name="acircumflex" unicode="&#xe2;" 
d="M413 641l-89 -67h-117l140 154h155l77 -154h-108zM486 517h193l-108 -517h-193l11 52c-46 -40 -103 -64 -167 -64c-122 0 -198 86 -198 212c0 169 120 329 286 329c72 0 128 -31 161 -84zM208 221c0 -45 31 -73 84 -73c80 0 145 78 145 150c0 44 -28 71 -74 71
c-84 0 -155 -71 -155 -148z" />
    <glyph glyph-name="adieresis" unicode="&#xe4;" 
d="M296 575c-50 0 -81 36 -81 81c0 54 44 92 92 92c46 0 79 -37 79 -82c0 -52 -44 -91 -90 -91zM521 575c-49 0 -81 36 -81 82c0 53 45 91 92 91s79 -37 79 -81c0 -53 -44 -92 -90 -92zM486 517h193l-108 -517h-193l11 52c-46 -40 -103 -64 -167 -64
c-122 0 -198 86 -198 212c0 169 120 329 286 329c72 0 128 -31 161 -84zM208 221c0 -45 31 -73 84 -73c80 0 145 78 145 150c0 44 -28 71 -74 71c-84 0 -155 -71 -155 -148z" />
    <glyph glyph-name="agrave" unicode="&#xe0;" 
d="M501 574h-121l-124 136l167 28zM486 517h193l-108 -517h-193l11 52c-46 -40 -103 -64 -167 -64c-122 0 -198 86 -198 212c0 169 120 329 286 329c72 0 128 -31 161 -84zM208 221c0 -45 31 -73 84 -73c80 0 145 78 145 150c0 44 -28 71 -74 71c-84 0 -155 -71 -155 -148z
" />
    <glyph glyph-name="amacron" unicode="&#x101;" 
d="M601 679l-22 -106h-369l22 106h369zM486 517h193l-108 -517h-193l11 52c-46 -40 -103 -64 -167 -64c-122 0 -198 86 -198 212c0 169 120 329 286 329c72 0 128 -31 161 -84zM208 221c0 -45 31 -73 84 -73c80 0 145 78 145 150c0 44 -28 71 -74 71
c-84 0 -155 -71 -155 -148z" />
    <glyph glyph-name="aogonek" unicode="&#x105;" 
d="M542 -66c18 0 34 6 44 16l13 -93c-26 -20 -58 -30 -91 -30c-62 0 -101 37 -101 100c0 27 7 52 22 73h-51l11 52c-46 -40 -103 -64 -167 -64c-122 0 -198 86 -198 212c0 169 120 329 286 329c72 0 128 -31 161 -84l15 72h193l-107 -514l6 -3c-30 0 -56 -21 -56 -45
c0 -13 7 -21 20 -21zM208 221c0 -45 31 -73 84 -73c80 0 145 78 145 150c0 44 -28 71 -74 71c-84 0 -155 -71 -155 -148z" />
    <glyph glyph-name="aring" unicode="&#xe5;" 
d="M395 575c-58 0 -99 41 -99 96c0 79 75 146 149 146c58 0 99 -41 99 -96c0 -78 -74 -146 -149 -146zM430 745c-30 0 -60 -27 -60 -58c0 -23 16 -40 40 -40c30 0 60 28 60 59c0 22 -17 39 -40 39zM486 517h193l-108 -517h-193l11 52c-46 -40 -103 -64 -167 -64
c-122 0 -198 86 -198 212c0 169 120 329 286 329c72 0 128 -31 161 -84zM208 221c0 -45 31 -73 84 -73c80 0 145 78 145 150c0 44 -28 71 -74 71c-84 0 -155 -71 -155 -148z" />
    <glyph glyph-name="atilde" unicode="&#xe3;" 
d="M351 612c-26 0 -46 -20 -58 -49l-86 27c30 95 70 134 137 134c60 0 104 -41 124 -41c26 0 47 21 58 49l87 -28c-30 -95 -71 -133 -137 -133c-62 0 -104 41 -125 41zM486 517h193l-108 -517h-193l11 52c-46 -40 -103 -64 -167 -64c-122 0 -198 86 -198 212
c0 169 120 329 286 329c72 0 128 -31 161 -84zM208 221c0 -45 31 -73 84 -73c80 0 145 78 145 150c0 44 -28 71 -74 71c-84 0 -155 -71 -155 -148z" />
    <glyph glyph-name="ae" unicode="&#xe6;" horiz-adv-x="880" 
d="M874 388c0 -116 -95 -181 -256 -175h-104c0 -50 28 -81 75 -81c46 0 93 21 131 48l93 -117c-56 -47 -148 -75 -221 -75c-79 0 -141 25 -183 69c-47 -45 -116 -69 -201 -69c-140 0 -225 76 -204 180c20 94 125 157 244 157c39 0 79 -10 115 -28l3 16c10 45 -19 63 -80 63
c-51 0 -95 -14 -134 -33l-48 128c79 36 140 58 221 58c69 0 123 -24 154 -63c53 40 120 63 193 63c118 0 202 -58 202 -141zM667 385c-49 0 -92 -30 -120 -71h92c49 0 79 17 80 45c0 15 -22 26 -52 26zM226 112c61 0 104 26 111 59l5 24c-20 11 -45 13 -67 13
c-43 0 -81 -29 -89 -65c-4 -19 12 -31 40 -31z" />
    <glyph glyph-name="b" unicode="b" 
d="M454 529c122 0 198 -85 198 -211c0 -171 -120 -330 -286 -330c-72 0 -128 31 -160 82l-15 -70h-193l145 699h193l-49 -235c46 40 103 65 167 65zM314 148c83 0 154 73 154 148c0 45 -31 73 -83 73c-68 0 -126 -56 -142 -118l-2 -11c-1 -7 -2 -14 -2 -21
c0 -44 28 -71 75 -71z" />
    <glyph glyph-name="c" unicode="c" horiz-adv-x="556" 
d="M273 -12c-144 0 -248 103 -248 234c0 169 172 307 339 307c98 0 164 -44 204 -102l-140 -92c-15 23 -48 34 -74 34c-75 0 -148 -76 -148 -144c0 -44 32 -77 78 -77c39 0 84 23 108 47l113 -114c-64 -60 -142 -93 -232 -93z" />
    <glyph glyph-name="cacute" unicode="&#x107;" horiz-adv-x="556" 
d="M239 574l146 164l165 -28l-180 -136h-131zM273 -12c-144 0 -248 103 -248 234c0 169 172 307 339 307c98 0 164 -44 204 -102l-140 -92c-15 23 -48 34 -74 34c-75 0 -148 -76 -148 -144c0 -44 32 -77 78 -77c39 0 84 23 108 47l113 -114c-64 -60 -142 -93 -232 -93z" />
    <glyph glyph-name="ccaron" unicode="&#x10d;" horiz-adv-x="556" 
d="M286 574l-76 154h108l57 -67l90 67h117l-141 -154h-155zM273 -12c-144 0 -248 103 -248 234c0 169 172 307 339 307c98 0 164 -44 204 -102l-140 -92c-15 23 -48 34 -74 34c-75 0 -148 -76 -148 -144c0 -44 32 -77 78 -77c39 0 84 23 108 47l113 -114
c-64 -60 -142 -93 -232 -93z" />
    <glyph glyph-name="ccedilla" unicode="&#xe7;" horiz-adv-x="556" 
d="M505 81c-56 -53 -124 -85 -201 -92l-21 -33c34 -7 56 -32 56 -65c0 -60 -52 -91 -120 -91c-44 0 -79 17 -101 34l35 59c15 -14 33 -18 47 -18c33 0 57 13 57 32c0 9 -5 15 -14 15c-11 0 -25 -5 -36 -13l-26 29l34 56c-113 24 -190 115 -190 228c0 169 172 307 339 307
c98 0 164 -44 204 -102l-140 -92c-15 23 -48 34 -74 34c-75 0 -148 -76 -148 -144c0 -44 32 -77 78 -77c39 0 84 23 108 47z" />
    <glyph glyph-name="d" unicode="d" 
d="M523 699h193l-145 -699h-193l11 52c-46 -40 -103 -64 -167 -64c-122 0 -198 86 -198 212c0 169 120 329 286 329c72 0 128 -31 161 -83zM208 221c0 -45 31 -73 84 -73c80 0 145 78 145 150c0 44 -28 71 -74 71c-84 0 -155 -71 -155 -148z" />
    <glyph glyph-name="eth" unicode="&#xf0;" horiz-adv-x="635" 
d="M504 616c73 -85 112 -163 112 -258c0 -202 -145 -370 -341 -370c-149 0 -245 88 -245 217c0 150 112 287 261 287c70 0 109 -31 140 -65c-10 48 -37 89 -75 128l-106 -44l-23 88l53 22l-58 43l172 63c15 -14 30 -28 43 -41l97 40l23 -88zM285 149c74 0 137 62 137 128
c0 36 -27 61 -74 61c-73 0 -137 -63 -137 -127c0 -39 28 -62 74 -62z" />
    <glyph glyph-name="dcaron" unicode="&#x10f;" horiz-adv-x="675" 
d="M471 446l52 253h193l-145 -699h-193l11 52c-46 -40 -103 -64 -167 -64c-122 0 -198 86 -198 212c0 169 120 329 286 329c72 0 128 -31 161 -83zM847 699c47 0 77 -39 77 -94c0 -76 -57 -142 -123 -189l-48 46c30 20 56 48 73 72c-48 0 -67 32 -67 73c0 50 42 92 88 92z
M208 221c0 -45 31 -73 84 -73c80 0 145 78 145 150c0 44 -28 71 -74 71c-84 0 -155 -71 -155 -148z" />
    <glyph glyph-name="dcroat" unicode="&#x111;" horiz-adv-x="706" 
d="M763 655l-19 -90h-56l-117 -565h-193l11 52c-46 -40 -103 -64 -167 -64c-122 0 -198 86 -198 212c0 169 120 329 286 329c72 0 128 -31 161 -83l24 119h-141l19 90h141l9 44h193l-9 -44h56zM208 221c0 -45 31 -73 84 -73c80 0 145 78 145 150c0 44 -28 71 -74 71
c-84 0 -155 -71 -155 -148z" />
    <glyph glyph-name="e" unicode="e" horiz-adv-x="560" 
d="M545 388c0 -116 -95 -181 -256 -175h-104c0 -50 28 -81 75 -81c46 0 93 21 131 48l93 -117c-56 -47 -148 -75 -221 -75c-148 0 -240 90 -240 222c0 177 140 319 320 319c118 0 202 -58 202 -141zM338 385c-49 0 -92 -30 -120 -71h92c49 0 79 17 80 45c0 15 -22 26 -52 26
z" />
    <glyph glyph-name="eacute" unicode="&#xe9;" horiz-adv-x="560" 
d="M546 710l-180 -136h-131l146 164zM343 529c118 0 202 -58 202 -141c0 -116 -95 -181 -256 -175h-104c0 -50 28 -81 75 -81c46 0 93 21 131 48l93 -117c-56 -47 -148 -75 -221 -75c-148 0 -240 90 -240 222c0 177 140 319 320 319zM310 314c49 0 79 17 80 45
c0 15 -22 26 -52 26c-49 0 -92 -30 -120 -71h92z" />
    <glyph glyph-name="ecaron" unicode="&#x11b;" horiz-adv-x="560" 
d="M437 574h-155l-76 154h108l57 -67l90 67h117zM343 529c118 0 202 -58 202 -141c0 -116 -95 -181 -256 -175h-104c0 -50 28 -81 75 -81c46 0 93 21 131 48l93 -117c-56 -47 -148 -75 -221 -75c-148 0 -240 90 -240 222c0 177 140 319 320 319zM310 314c49 0 79 17 80 45
c0 15 -22 26 -52 26c-49 0 -92 -30 -120 -71h92z" />
    <glyph glyph-name="ecircumflex" unicode="&#xea;" horiz-adv-x="560" 
d="M375 641l-89 -67h-117l140 154h155l77 -154h-108zM545 388c0 -116 -95 -181 -256 -175h-104c0 -50 28 -81 75 -81c46 0 93 21 131 48l93 -117c-56 -47 -148 -75 -221 -75c-148 0 -240 90 -240 222c0 177 140 319 320 319c118 0 202 -58 202 -141zM338 385
c-49 0 -92 -30 -120 -71h92c49 0 79 17 80 45c0 15 -22 26 -52 26z" />
    <glyph glyph-name="edieresis" unicode="&#xeb;" horiz-adv-x="560" 
d="M258 575c-50 0 -81 36 -81 81c0 54 44 92 92 92c46 0 79 -37 79 -82c0 -52 -44 -91 -90 -91zM494 748c47 0 79 -37 79 -81c0 -53 -44 -92 -90 -92c-49 0 -81 36 -81 82c0 53 45 91 92 91zM343 529c118 0 202 -58 202 -141c0 -116 -95 -181 -256 -175h-104
c0 -50 28 -81 75 -81c46 0 93 21 131 48l93 -117c-56 -47 -148 -75 -221 -75c-148 0 -240 90 -240 222c0 177 140 319 320 319zM310 314c49 0 79 17 80 45c0 15 -22 26 -52 26c-49 0 -92 -30 -120 -71h92z" />
    <glyph glyph-name="edotaccent" unicode="&#x117;" horiz-adv-x="560" 
d="M370 575c-50 0 -81 36 -81 81c0 54 44 92 92 92c46 0 79 -37 79 -82c0 -52 -44 -91 -90 -91zM545 388c0 -116 -95 -181 -256 -175h-104c0 -50 28 -81 75 -81c46 0 93 21 131 48l93 -117c-56 -47 -148 -75 -221 -75c-148 0 -240 90 -240 222c0 177 140 319 320 319
c118 0 202 -58 202 -141zM338 385c-49 0 -92 -30 -120 -71h92c49 0 79 17 80 45c0 15 -22 26 -52 26z" />
    <glyph glyph-name="uni1EB9" unicode="&#x1eb9;" horiz-adv-x="600" 
d="M545 388c0 -116 -95 -181 -256 -175h-104c0 -50 28 -81 75 -81c46 0 93 21 131 48l93 -117c-56 -47 -148 -75 -221 -75c-148 0 -240 90 -240 222c0 177 140 319 320 319c118 0 202 -58 202 -141zM338 385c-49 0 -92 -30 -120 -71h92c49 0 79 17 80 45c0 15 -22 26 -52 26
zM199 -64c46 0 79 -37 79 -82c0 -52 -44 -91 -90 -91c-50 0 -81 36 -81 81c0 54 44 92 92 92z" />
    <glyph glyph-name="egrave" unicode="&#xe8;" horiz-adv-x="560" 
d="M463 574h-121l-124 136l167 28zM545 388c0 -116 -95 -181 -256 -175h-104c0 -50 28 -81 75 -81c46 0 93 21 131 48l93 -117c-56 -47 -148 -75 -221 -75c-148 0 -240 90 -240 222c0 177 140 319 320 319c118 0 202 -58 202 -141zM338 385c-49 0 -92 -30 -120 -71h92
c49 0 79 17 80 45c0 15 -22 26 -52 26z" />
    <glyph glyph-name="emacron" unicode="&#x113;" horiz-adv-x="560" 
d="M563 679l-22 -106h-369l22 106h369zM343 529c118 0 202 -58 202 -141c0 -116 -95 -181 -256 -175h-104c0 -50 28 -81 75 -81c46 0 93 21 131 48l93 -117c-56 -47 -148 -75 -221 -75c-148 0 -240 90 -240 222c0 177 140 319 320 319zM310 314c49 0 79 17 80 45
c0 15 -22 26 -52 26c-49 0 -92 -30 -120 -71h92z" />
    <glyph glyph-name="eogonek" unicode="&#x119;" horiz-adv-x="560" 
d="M545 388c0 -116 -95 -181 -256 -175h-104c0 -50 28 -81 75 -81c46 0 93 21 131 48l93 -117c-54 -46 -142 -73 -214 -75c-30 0 -56 -21 -56 -45c0 -13 7 -21 20 -21c18 0 34 6 44 16l13 -93c-26 -20 -58 -30 -91 -30c-62 0 -101 37 -101 100c0 39 15 72 43 98
c-75 35 -119 106 -119 197c0 177 140 319 320 319c118 0 202 -58 202 -141zM338 385c-49 0 -92 -30 -120 -71h92c49 0 79 17 80 45c0 15 -22 26 -52 26z" />
    <glyph glyph-name="uni1EBD" unicode="&#x1ebd;" horiz-adv-x="560" 
d="M313 612c-26 0 -46 -20 -58 -49l-86 27c30 95 70 134 137 134c60 0 104 -41 124 -41c26 0 47 21 58 49l87 -28c-30 -95 -71 -133 -137 -133c-62 0 -104 41 -125 41zM343 529c118 0 202 -58 202 -141c0 -116 -95 -181 -256 -175h-104c0 -50 28 -81 75 -81
c46 0 93 21 131 48l93 -117c-56 -47 -148 -75 -221 -75c-148 0 -240 90 -240 222c0 177 140 319 320 319zM310 314c49 0 79 17 80 45c0 15 -22 26 -52 26c-49 0 -92 -30 -120 -71h92z" />
    <glyph glyph-name="f" unicode="f" horiz-adv-x="395" 
d="M394 570c-41 0 -64 -28 -73 -53h102l-32 -152h-102l-76 -365h-184l76 365h-65l32 152h65l7 36c22 103 103 167 193 167c59 0 108 -27 135 -58l-46 -102c-11 9 -24 10 -32 10z" />
    <glyph glyph-name="g" unicode="g" horiz-adv-x="657" 
d="M466 517h194l-98 -470c-28 -135 -163 -219 -327 -219c-102 0 -186 33 -235 73l81 124c25 -25 82 -37 129 -37c85 0 154 40 164 85l5 23c-48 -39 -107 -58 -161 -58c-113 0 -188 82 -188 200c0 147 116 291 263 291c73 0 136 -36 159 -80zM293 198c56 0 111 40 125 89
l3 15c1 3 1 6 1 10c0 37 -25 57 -66 57c-66 0 -129 -53 -129 -113c0 -40 28 -58 66 -58z" />
    <glyph glyph-name="gbreve" unicode="&#x11f;" horiz-adv-x="657" 
d="M405 575c-62 0 -118 24 -156 71l89 74c22 -27 54 -43 88 -43s74 16 106 43l59 -74c-57 -47 -124 -71 -186 -71zM466 517h194l-98 -470c-28 -135 -163 -219 -327 -219c-102 0 -186 33 -235 73l81 124c25 -25 82 -37 129 -37c85 0 154 40 164 85l5 23
c-48 -39 -107 -58 -161 -58c-113 0 -188 82 -188 200c0 147 116 291 263 291c73 0 136 -36 159 -80zM293 198c56 0 111 40 125 89l3 15c1 3 1 6 1 10c0 37 -25 57 -66 57c-66 0 -129 -53 -129 -113c0 -40 28 -58 66 -58z" />
    <glyph glyph-name="gcommaaccent" unicode="&#x123;" horiz-adv-x="600" 
d="M422 574c-47 0 -77 39 -77 94c0 76 57 142 123 189l48 -46c-30 -20 -56 -48 -73 -72c48 0 67 -32 67 -73c0 -50 -42 -92 -88 -92zM466 517h194l-98 -470c-28 -135 -163 -219 -327 -219c-102 0 -186 33 -235 73l81 124c25 -25 82 -37 129 -37c85 0 154 40 164 85l5 23
c-48 -39 -107 -58 -161 -58c-113 0 -188 82 -188 200c0 147 116 291 263 291c73 0 136 -36 159 -80zM293 198c56 0 111 40 125 89l3 15c1 3 1 6 1 10c0 37 -25 57 -66 57c-66 0 -129 -53 -129 -113c0 -40 28 -58 66 -58z" />
    <glyph glyph-name="h" unicode="h" horiz-adv-x="627" 
d="M432 529c101 0 164 -67 164 -160c0 -38 -8 -64 -72 -369h-184c61 289 64 302 64 317c0 34 -20 52 -52 52c-50 0 -95 -41 -103 -87v2l-59 -284h-193l145 699h193l-47 -224c37 34 88 54 144 54z" />
    <glyph glyph-name="i" unicode="i" horiz-adv-x="304" 
d="M231 573c-54 0 -92 41 -92 91c0 60 53 107 108 107c52 0 89 -41 89 -91c0 -57 -50 -107 -105 -107zM1 0l108 517h193l-108 -517h-193z" />
    <glyph glyph-name="dotlessi" unicode="&#x131;" horiz-adv-x="304" 
d="M1 0l108 517h193l-108 -517h-193z" />
    <glyph glyph-name="iacute" unicode="&#xed;" horiz-adv-x="304" 
d="M149 574l146 164l165 -28l-180 -136h-131zM1 0l108 517h193l-108 -517h-193z" />
    <glyph glyph-name="icircumflex" unicode="&#xee;" horiz-adv-x="304" 
d="M30 574l140 154h155l77 -154h-108l-58 67l-89 -67h-117zM1 0l108 517h193l-108 -517h-193z" />
    <glyph glyph-name="idieresis" unicode="&#xef;" horiz-adv-x="304" 
d="M119 575c-50 0 -81 36 -81 81c0 54 44 92 92 92c46 0 79 -37 79 -82c0 -52 -44 -91 -90 -91zM344 575c-49 0 -81 36 -81 82c0 53 45 91 92 91s79 -37 79 -81c0 -53 -44 -92 -90 -92zM1 0l108 517h193l-108 -517h-193z" />
    <glyph glyph-name="igrave" unicode="&#xec;" horiz-adv-x="304" 
d="M158 574l-124 136l167 28l78 -164h-121zM1 0l108 517h193l-108 -517h-193z" />
    <glyph glyph-name="imacron" unicode="&#x12b;" horiz-adv-x="304" 
d="M33 573l22 106h369l-22 -106h-369zM1 0l108 517h193l-108 -517h-193z" />
    <glyph glyph-name="iogonek" unicode="&#x12f;" horiz-adv-x="304" 
d="M231 575c-50 0 -81 36 -81 81c0 54 44 92 92 92c46 0 79 -37 79 -82c0 -52 -44 -91 -90 -91zM9 39l100 478h193l-108 -517h-89c-30 0 -56 -21 -56 -45c0 -13 7 -21 20 -21c18 0 34 6 44 16l13 -93c-26 -20 -58 -30 -91 -30c-62 0 -101 37 -101 100c0 48 23 88 67 115z
" />
    <glyph glyph-name="j" unicode="j" horiz-adv-x="304" 
d="M231 572c-54 0 -91 42 -91 93c0 54 49 105 107 105c53 0 89 -42 89 -92c0 -56 -50 -106 -105 -106zM-14 -178c-47 0 -94 13 -120 27l35 133c11 -5 29 -5 39 -5c32 0 63 30 69 61l100 479h193l-108 -519c-22 -108 -106 -176 -208 -176z" />
    <glyph glyph-name="uni0237" unicode="&#x237;" horiz-adv-x="304" 
d="M-14 -178c-47 0 -94 13 -120 27l35 133c11 -5 29 -5 39 -5c32 0 63 30 69 61l100 479h193l-108 -519c-22 -108 -106 -176 -208 -176z" />
    <glyph glyph-name="k" unicode="k" horiz-adv-x="588" 
d="M649 517l-229 -223l121 -294h-211l-57 171l-58 -54l-24 -117h-193l145 699h193l-75 -360l168 178h220z" />
    <glyph glyph-name="kcommaaccent" unicode="&#x137;" horiz-adv-x="588" 
d="M649 517l-229 -223l121 -294h-211l-57 171l-58 -54l-24 -117h-193l145 699h193l-75 -360l168 178h220zM239 -23c47 0 77 -39 77 -94c0 -76 -57 -142 -123 -189l-48 46c30 20 56 48 73 72c-48 0 -67 32 -67 73c0 50 42 92 88 92z" />
    <glyph glyph-name="l" unicode="l" horiz-adv-x="303" 
d="M2 0l145 699h193l-145 -699h-193z" />
    <glyph glyph-name="lacute" unicode="&#x13a;" horiz-adv-x="303" 
d="M186 756l146 164l165 -28l-180 -136h-131zM2 0l145 699h193l-145 -699h-193z" />
    <glyph glyph-name="lcaron" unicode="&#x13e;" horiz-adv-x="303" 
d="M2 0l145 699h193l-145 -699h-193zM424 416l-48 46c30 20 56 48 73 72c-48 0 -67 32 -67 73c0 50 42 92 88 92c47 0 77 -39 77 -94c0 -76 -57 -142 -123 -189z" />
    <glyph glyph-name="lslash" unicode="&#x142;" horiz-adv-x="386" 
d="M420 517l-33 -167l-80 -36l-65 -314h-193l45 219l-90 -41l32 167l93 42l65 312h193l-45 -217z" />
    <glyph glyph-name="m" unicode="m" horiz-adv-x="952" 
d="M749 529c104 0 173 -69 173 -164c0 -29 -6 -48 -72 -366h-184c47 227 66 312 65 323c-1 29 -14 47 -49 47c-46 0 -89 -32 -99 -69c-10 -46 -28 -131 -63 -301h-184c47 227 66 312 65 323c-1 22 -8 47 -48 47c-50 0 -93 -37 -101 -74l-1 -3l-61 -292h-193l108 517h193
l-11 -53c31 41 80 65 136 65c68 0 123 -33 150 -86c38 55 106 86 176 86z" />
    <glyph glyph-name="n" unicode="n" horiz-adv-x="627" 
d="M432 529c101 0 164 -67 164 -160c0 -38 -8 -64 -72 -369h-184c61 289 64 302 64 317c0 34 -20 52 -52 52c-50 0 -95 -41 -103 -87l-59 -282h-193l108 517h193l-9 -41c37 34 87 53 143 53z" />
    <glyph glyph-name="nacute" unicode="&#x144;" horiz-adv-x="627" 
d="M581 710l-180 -136h-131l146 164zM432 529c101 0 164 -67 164 -160c0 -38 -8 -64 -72 -369h-184c61 289 64 302 64 317c0 34 -20 52 -52 52c-50 0 -95 -41 -103 -87l-59 -282h-193l108 517h193l-9 -41c37 34 87 53 143 53z" />
    <glyph glyph-name="ncaron" unicode="&#x148;" horiz-adv-x="627" 
d="M472 574h-155l-76 154h108l57 -67l90 67h117zM432 529c101 0 164 -67 164 -160c0 -38 -8 -64 -72 -369h-184c61 289 64 302 64 317c0 34 -20 52 -52 52c-50 0 -95 -41 -103 -87l-59 -282h-193l108 517h193l-9 -41c37 34 87 53 143 53z" />
    <glyph glyph-name="ncommaaccent" unicode="&#x146;" horiz-adv-x="627" 
d="M432 529c101 0 164 -67 164 -160c0 -38 -8 -64 -72 -369h-184c61 289 64 302 64 317c0 34 -20 52 -52 52c-50 0 -95 -41 -103 -87l-59 -282h-193l108 517h193l-9 -41c37 34 87 53 143 53zM255 -23c47 0 77 -39 77 -94c0 -76 -57 -142 -123 -189l-48 46c30 20 56 48 73 72
c-48 0 -67 32 -67 73c0 50 42 92 88 92z" />
    <glyph glyph-name="ntilde" unicode="&#xf1;" horiz-adv-x="627" 
d="M348 612c-26 0 -46 -20 -58 -49l-86 27c30 95 70 134 137 134c60 0 104 -41 124 -41c26 0 47 21 58 49l87 -28c-30 -95 -71 -133 -137 -133c-62 0 -104 41 -125 41zM432 529c101 0 164 -67 164 -160c0 -38 -8 -64 -72 -369h-184c61 289 64 302 64 317c0 34 -20 52 -52 52
c-50 0 -95 -41 -103 -87l-59 -282h-193l108 517h193l-9 -41c37 34 87 53 143 53z" />
    <glyph glyph-name="o" unicode="o" horiz-adv-x="636" 
d="M275 -12c-146 0 -250 103 -250 234c0 170 172 307 338 307c145 0 249 -103 249 -233c0 -169 -171 -308 -337 -308zM284 148c75 0 151 77 151 145c0 44 -33 76 -80 76c-77 0 -153 -75 -153 -144c0 -44 34 -77 82 -77z" />
    <glyph glyph-name="oacute" unicode="&#xf3;" horiz-adv-x="636" 
d="M254 574l146 164l165 -28l-180 -136h-131zM275 -12c-146 0 -250 103 -250 234c0 170 172 307 338 307c145 0 249 -103 249 -233c0 -169 -171 -308 -337 -308zM284 148c75 0 151 77 151 145c0 44 -33 76 -80 76c-77 0 -153 -75 -153 -144c0 -44 34 -77 82 -77z" />
    <glyph glyph-name="ocircumflex" unicode="&#xf4;" horiz-adv-x="636" 
d="M188 574l140 154h155l77 -154h-108l-58 67l-89 -67h-117zM275 -12c-146 0 -250 103 -250 234c0 170 172 307 338 307c145 0 249 -103 249 -233c0 -169 -171 -308 -337 -308zM284 148c75 0 151 77 151 145c0 44 -33 76 -80 76c-77 0 -153 -75 -153 -144
c0 -44 34 -77 82 -77z" />
    <glyph glyph-name="odieresis" unicode="&#xf6;" horiz-adv-x="636" 
d="M277 575c-50 0 -81 36 -81 81c0 54 44 92 92 92c46 0 79 -37 79 -82c0 -52 -44 -91 -90 -91zM502 575c-49 0 -81 36 -81 82c0 53 45 91 92 91s79 -37 79 -81c0 -53 -44 -92 -90 -92zM275 -12c-146 0 -250 103 -250 234c0 170 172 307 338 307c145 0 249 -103 249 -233
c0 -169 -171 -308 -337 -308zM284 148c75 0 151 77 151 145c0 44 -33 76 -80 76c-77 0 -153 -75 -153 -144c0 -44 34 -77 82 -77z" />
    <glyph glyph-name="ograve" unicode="&#xf2;" horiz-adv-x="636" 
d="M361 574l-124 136l167 28l78 -164h-121zM275 -12c-146 0 -250 103 -250 234c0 170 172 307 338 307c145 0 249 -103 249 -233c0 -169 -171 -308 -337 -308zM284 148c75 0 151 77 151 145c0 44 -33 76 -80 76c-77 0 -153 -75 -153 -144c0 -44 34 -77 82 -77z" />
    <glyph glyph-name="ohungarumlaut" unicode="&#x151;" horiz-adv-x="636" 
d="M185 574l146 164l165 -28l-180 -136h-131zM443 574l146 164l165 -28l-180 -136h-131zM275 -12c-146 0 -250 103 -250 234c0 170 172 307 338 307c145 0 249 -103 249 -233c0 -169 -171 -308 -337 -308zM284 148c75 0 151 77 151 145c0 44 -33 76 -80 76
c-77 0 -153 -75 -153 -144c0 -44 34 -77 82 -77z" />
    <glyph glyph-name="omacron" unicode="&#x14d;" horiz-adv-x="636" 
d="M191 573l22 106h369l-22 -106h-369zM275 -12c-146 0 -250 103 -250 234c0 170 172 307 338 307c145 0 249 -103 249 -233c0 -169 -171 -308 -337 -308zM284 148c75 0 151 77 151 145c0 44 -33 76 -80 76c-77 0 -153 -75 -153 -144c0 -44 34 -77 82 -77z" />
    <glyph glyph-name="oslash" unicode="&#xf8;" horiz-adv-x="636" 
d="M659 517l-91 -85c28 -38 44 -85 44 -136c0 -169 -171 -308 -337 -308c-55 0 -104 15 -143 40l-30 -28h-125l92 85c-28 39 -44 86 -44 137c0 170 172 307 338 307c54 0 103 -14 142 -39l30 27h124zM202 225c0 -5 0 -10 1 -15l170 157c-5 1 -12 2 -18 2
c-77 0 -153 -75 -153 -144zM435 293c0 5 0 10 -1 15l-170 -158c6 -1 13 -2 20 -2c75 0 151 77 151 145z" />
    <glyph glyph-name="otilde" unicode="&#xf5;" horiz-adv-x="636" 
d="M457 571c-62 0 -104 41 -125 41c-26 0 -46 -20 -58 -49l-86 27c30 95 70 134 137 134c60 0 104 -41 124 -41c26 0 47 21 58 49l87 -28c-30 -95 -71 -133 -137 -133zM275 -12c-146 0 -250 103 -250 234c0 170 172 307 338 307c145 0 249 -103 249 -233
c0 -169 -171 -308 -337 -308zM284 148c75 0 151 77 151 145c0 44 -33 76 -80 76c-77 0 -153 -75 -153 -144c0 -44 34 -77 82 -77z" />
    <glyph glyph-name="oe" unicode="&#x153;" horiz-adv-x="964" 
d="M702 213h-104c0 -50 28 -81 75 -81c46 0 93 21 131 48l93 -117c-56 -47 -148 -75 -221 -75c-82 0 -147 28 -189 75c-61 -47 -137 -75 -212 -75c-146 0 -250 103 -250 234c0 170 172 307 338 307c76 0 141 -29 186 -75c55 47 127 75 207 75c118 0 202 -58 202 -141
c0 -116 -95 -181 -256 -175zM751 385c-49 0 -92 -30 -120 -71h92c49 0 79 17 80 45c0 15 -22 26 -52 26zM284 148c75 0 151 77 151 145c0 44 -33 76 -80 76c-77 0 -153 -75 -153 -144c0 -44 34 -77 82 -77z" />
    <glyph glyph-name="p" unicode="p" 
d="M454 529c122 0 198 -85 198 -211c0 -171 -120 -330 -286 -330c-72 0 -128 31 -161 83l-50 -243h-193l143 689h193l-11 -53c46 40 103 65 167 65zM314 148c83 0 154 73 154 148c0 45 -31 73 -83 73c-80 0 -146 -77 -146 -150c0 -44 28 -71 75 -71z" />
    <glyph glyph-name="thorn" unicode="&#xfe;" 
d="M454 529c122 0 198 -85 198 -211c0 -171 -120 -330 -286 -330c-72 0 -128 31 -161 83l-50 -243h-193l181 871h193l-49 -235c46 40 103 65 167 65zM314 148c83 0 154 73 154 148c0 45 -31 73 -83 73c-80 0 -146 -77 -146 -150c0 -44 28 -71 75 -71z" />
    <glyph glyph-name="q" unicode="q" 
d="M486 517h193l-143 -689h-193l47 225c-46 -40 -104 -65 -168 -65c-122 0 -198 86 -198 212c0 169 120 329 286 329c72 0 128 -31 161 -84zM292 148c80 0 145 78 145 150c0 44 -28 71 -74 71c-84 0 -155 -71 -155 -148c0 -45 31 -73 84 -73z" />
    <glyph glyph-name="r" unicode="r" horiz-adv-x="463" 
d="M281 435c45 59 106 94 175 94l-21 -160c-100 0 -178 -62 -200 -153l-45 -216h-193l108 517h193z" />
    <glyph glyph-name="racute" unicode="&#x155;" horiz-adv-x="463" 
d="M483 710l-180 -136h-131l146 164zM281 435c45 59 106 94 175 94l-21 -160c-100 0 -178 -62 -200 -153l-45 -216h-193l108 517h193z" />
    <glyph glyph-name="rcaron" unicode="&#x159;" horiz-adv-x="463" 
d="M374 574h-155l-76 154h108l57 -67l90 67h117zM281 435c45 59 106 94 175 94l-21 -160c-100 0 -178 -62 -200 -153l-45 -216h-193l108 517h193z" />
    <glyph glyph-name="rcommaaccent" unicode="&#x157;" horiz-adv-x="463" 
d="M281 435c45 59 106 94 175 94l-21 -160c-100 0 -178 -62 -200 -153l-45 -216h-193l108 517h193zM173 -23c47 0 77 -39 77 -94c0 -76 -57 -142 -123 -189l-48 46c30 20 56 48 73 72c-48 0 -67 32 -67 73c0 50 42 92 88 92z" />
    <glyph glyph-name="s" unicode="s" horiz-adv-x="504" 
d="M210 -12c-96 0 -183 34 -238 83l87 108c42 -35 111 -57 159 -57c44 0 70 18 70 40c0 7 -3 14 -60 27c-96 22 -178 41 -178 143c0 117 109 197 242 197c85 0 156 -33 210 -72l-80 -110c-37 28 -92 51 -130 51c-39 0 -70 -23 -70 -42c0 -9 7 -14 59 -26
c90 -21 179 -42 179 -149c0 -120 -110 -193 -250 -193z" />
    <glyph glyph-name="sacute" unicode="&#x15b;" horiz-adv-x="504" 
d="M194 574l146 164l165 -28l-180 -136h-131zM210 -12c-96 0 -183 34 -238 83l87 108c42 -35 111 -57 159 -57c44 0 70 18 70 40c0 7 -3 14 -60 27c-96 22 -178 41 -178 143c0 117 109 197 242 197c85 0 156 -33 210 -72l-80 -110c-37 28 -92 51 -130 51
c-39 0 -70 -23 -70 -42c0 -9 7 -14 59 -26c90 -21 179 -42 179 -149c0 -120 -110 -193 -250 -193z" />
    <glyph glyph-name="scaron" unicode="&#x161;" horiz-adv-x="504" 
d="M241 574l-76 154h108l57 -67l90 67h117l-141 -154h-155zM210 -12c-96 0 -183 34 -238 83l87 108c42 -35 111 -57 159 -57c44 0 70 18 70 40c0 7 -3 14 -60 27c-96 22 -178 41 -178 143c0 117 109 197 242 197c85 0 156 -33 210 -72l-80 -110c-37 28 -92 51 -130 51
c-39 0 -70 -23 -70 -42c0 -9 7 -14 59 -26c90 -21 179 -42 179 -149c0 -120 -110 -193 -250 -193z" />
    <glyph glyph-name="scedilla" unicode="&#x15f;" horiz-adv-x="504" 
d="M281 330c90 -21 179 -42 179 -149c0 -110 -92 -180 -216 -191l-21 -34c34 -7 56 -32 56 -65c0 -60 -52 -91 -120 -91c-44 0 -79 17 -101 34l35 59c15 -14 33 -18 47 -18c33 0 57 13 57 32c0 9 -5 15 -14 15c-11 0 -25 -5 -36 -13l-26 29l33 54c-74 10 -138 40 -182 79
l87 108c42 -35 111 -57 159 -57c44 0 70 18 70 40c0 7 -3 14 -60 27c-96 22 -178 41 -178 143c0 117 109 197 242 197c85 0 156 -33 210 -72l-80 -110c-37 28 -92 51 -130 51c-39 0 -70 -23 -70 -42c0 -9 7 -14 59 -26z" />
    <glyph glyph-name="germandbls" unicode="&#xdf;" horiz-adv-x="638" 
d="M-3 0l109 522c26 123 146 202 296 202c144 0 236 -75 236 -182c0 -83 -48 -152 -130 -188c57 -26 93 -80 93 -145c0 -133 -129 -209 -273 -209h-69l34 163h24c42 0 85 31 93 70c5 25 -16 40 -58 40h-36l31 147h-5c45 0 90 40 90 73c0 19 -16 31 -50 31
c-46 0 -89 -30 -97 -69l-95 -455h-193z" />
    <glyph glyph-name="t" unicode="t" horiz-adv-x="420" 
d="M391 365h-102c-34 -161 -37 -177 -37 -190c0 -20 9 -27 25 -27c22 0 47 12 57 21l15 -133c-36 -29 -89 -48 -139 -48c-89 0 -149 60 -149 144c0 25 5 48 44 233h-65l32 152h65l30 142h184l-30 -142h102z" />
    <glyph glyph-name="tcaron" unicode="&#x165;" horiz-adv-x="420" 
d="M594 699c47 0 77 -39 77 -94c0 -76 -57 -142 -123 -189l-48 46c30 20 56 48 73 72c-48 0 -67 32 -67 73c0 50 42 92 88 92zM351 659l-30 -142h102l-32 -152h-102c-34 -161 -37 -177 -37 -190c0 -20 9 -27 25 -27c22 0 47 12 57 21l15 -133c-36 -29 -89 -48 -139 -48
c-89 0 -149 60 -149 144c0 25 5 48 44 233h-65l32 152h65l30 142h184z" />
    <glyph glyph-name="uni0163" unicode="&#x163;" horiz-adv-x="420" 
d="M391 365h-102c-34 -161 -37 -177 -37 -190c0 -20 9 -27 25 -27c22 0 47 12 57 21l15 -133c-17 -13 -37 -25 -59 -33l-30 -47c34 -7 56 -32 56 -65c0 -60 -52 -91 -120 -91c-44 0 -79 17 -101 34l35 59c15 -14 33 -18 47 -18c33 0 57 13 57 32c0 9 -5 15 -14 15
c-11 0 -25 -5 -36 -13l-26 29l31 51c-77 9 -128 66 -128 143c0 25 5 48 44 233h-65l32 152h65l30 142h184l-30 -142h102z" />
    <glyph glyph-name="u" unicode="u" horiz-adv-x="627" 
d="M437 517h193l-108 -517h-193l9 41c-37 -34 -87 -53 -143 -53c-101 0 -164 67 -164 160c0 38 8 64 72 369h184c-61 -289 -64 -302 -64 -317c0 -34 20 -52 52 -52c50 0 95 41 103 87z" />
    <glyph glyph-name="uacute" unicode="&#xfa;" horiz-adv-x="627" 
d="M564 710l-180 -136h-131l146 164zM437 517h193l-108 -517h-193l9 41c-37 -34 -87 -53 -143 -53c-101 0 -164 67 -164 160c0 38 8 64 72 369h184c-61 -289 -64 -302 -64 -317c0 -34 20 -52 52 -52c50 0 95 41 103 87z" />
    <glyph glyph-name="ucircumflex" unicode="&#xfb;" horiz-adv-x="627" 
d="M393 641l-89 -67h-117l140 154h155l77 -154h-108zM437 517h193l-108 -517h-193l9 41c-37 -34 -87 -53 -143 -53c-101 0 -164 67 -164 160c0 38 8 64 72 369h184c-61 -289 -64 -302 -64 -317c0 -34 20 -52 52 -52c50 0 95 41 103 87z" />
    <glyph glyph-name="udieresis" unicode="&#xfc;" horiz-adv-x="627" 
d="M276 575c-50 0 -81 36 -81 81c0 54 44 92 92 92c46 0 79 -37 79 -82c0 -52 -44 -91 -90 -91zM501 575c-49 0 -81 36 -81 82c0 53 45 91 92 91s79 -37 79 -81c0 -53 -44 -92 -90 -92zM437 517h193l-108 -517h-193l9 41c-37 -34 -87 -53 -143 -53c-101 0 -164 67 -164 160
c0 38 8 64 72 369h184c-61 -289 -64 -302 -64 -317c0 -34 20 -52 52 -52c50 0 95 41 103 87z" />
    <glyph glyph-name="ugrave" unicode="&#xf9;" horiz-adv-x="627" 
d="M481 574h-121l-124 136l167 28zM437 517h193l-108 -517h-193l9 41c-37 -34 -87 -53 -143 -53c-101 0 -164 67 -164 160c0 38 8 64 72 369h184c-61 -289 -64 -302 -64 -317c0 -34 20 -52 52 -52c50 0 95 41 103 87z" />
    <glyph glyph-name="uhungarumlaut" unicode="&#x171;" horiz-adv-x="627" 
d="M415 710l-180 -136h-131l146 164zM493 574h-131l146 164l165 -28zM378 235l59 282h193l-108 -517h-193l9 41c-37 -34 -87 -53 -143 -53c-101 0 -164 67 -164 160c0 38 8 64 72 369h184c-61 -289 -64 -302 -64 -317c0 -34 20 -52 52 -52c50 0 95 41 103 87z" />
    <glyph glyph-name="umacron" unicode="&#x16b;" horiz-adv-x="627" 
d="M581 679l-22 -106h-369l22 106h369zM437 517h193l-108 -517h-193l9 41c-37 -34 -87 -53 -143 -53c-101 0 -164 67 -164 160c0 38 8 64 72 369h184c-61 -289 -64 -302 -64 -317c0 -34 20 -52 52 -52c50 0 95 41 103 87z" />
    <glyph glyph-name="uogonek" unicode="&#x173;" horiz-adv-x="627" 
d="M486 -66c18 0 34 6 44 16l13 -93c-26 -20 -58 -30 -91 -30c-62 0 -101 37 -101 100c0 27 7 52 22 73h-44l9 41c-37 -34 -87 -53 -143 -53c-101 0 -164 67 -164 160c0 38 8 64 72 369h184c-61 -289 -64 -302 -64 -317c0 -34 20 -52 52 -52c50 0 95 41 103 87l59 282h193
l-108 -517c-30 0 -56 -21 -56 -45c0 -13 7 -21 20 -21z" />
    <glyph glyph-name="uring" unicode="&#x16f;" horiz-adv-x="627" 
d="M375 575c-58 0 -99 41 -99 96c0 79 75 146 149 146c58 0 99 -41 99 -96c0 -78 -74 -146 -149 -146zM410 745c-30 0 -60 -27 -60 -58c0 -23 16 -40 40 -40c30 0 60 28 60 59c0 22 -17 39 -40 39zM437 517h193l-108 -517h-193l9 41c-37 -34 -87 -53 -143 -53
c-101 0 -164 67 -164 160c0 38 8 64 72 369h184c-61 -289 -64 -302 -64 -317c0 -34 20 -52 52 -52c50 0 95 41 103 87z" />
    <glyph glyph-name="v" unicode="v" horiz-adv-x="635" 
d="M177 0l-119 517h194l54 -296l177 296h202l-330 -517h-178z" />
    <glyph glyph-name="w" unicode="w" horiz-adv-x="847" 
d="M131 0l-70 517h181l22 -258l132 258h158l21 -258l131 258h189l-284 -517h-171l-13 266l-125 -266h-171z" />
    <glyph glyph-name="wacute" unicode="&#x1e83;" horiz-adv-x="847" 
d="M420 574l146 164l165 -28l-180 -136h-131zM131 0l-70 517h181l22 -258l132 258h158l21 -258l131 258h189l-284 -517h-171l-13 266l-125 -266h-171z" />
    <glyph glyph-name="wcircumflex" unicode="&#x175;" horiz-adv-x="847" 
d="M299 574l140 154h155l77 -154h-108l-58 67l-89 -67h-117zM131 0l-70 517h181l22 -258l132 258h158l21 -258l131 258h189l-284 -517h-171l-13 266l-125 -266h-171z" />
    <glyph glyph-name="wdieresis" unicode="&#x1e85;" horiz-adv-x="847" 
d="M388 575c-50 0 -81 36 -81 81c0 54 44 92 92 92c46 0 79 -37 79 -82c0 -52 -44 -91 -90 -91zM613 575c-49 0 -81 36 -81 82c0 53 45 91 92 91s79 -37 79 -81c0 -53 -44 -92 -90 -92zM131 0l-70 517h181l22 -258l132 258h158l21 -258l131 258h189l-284 -517h-171l-13 266
l-125 -266h-171z" />
    <glyph glyph-name="wgrave" unicode="&#x1e81;" horiz-adv-x="847" 
d="M421 574l-124 136l167 28l78 -164h-121zM131 0l-70 517h181l22 -258l132 258h158l21 -258l131 258h189l-284 -517h-171l-13 266l-125 -266h-171z" />
    <glyph glyph-name="x" unicode="x" horiz-adv-x="576" 
d="M621 517l-229 -253l127 -264h-199l-58 120l-109 -120h-204l242 267l-121 250h200l51 -107l97 107h203z" />
    <glyph glyph-name="y" unicode="y" horiz-adv-x="607" 
d="M116 -180c-52 0 -117 21 -156 46l54 116c25 -16 49 -25 66 -25c21 0 55 14 60 23l17 13l-98 524h193l38 -319l168 319h198l-305 -528c-65 -112 -149 -169 -235 -169z" />
    <glyph glyph-name="yacute" unicode="&#xfd;" horiz-adv-x="607" 
d="M248 574l146 164l165 -28l-180 -136h-131zM116 -180c-52 0 -117 21 -156 46l54 116c25 -16 49 -25 66 -25c21 0 55 14 60 23l17 13l-98 524h193l38 -319l168 319h198l-305 -528c-65 -112 -149 -169 -235 -169z" />
    <glyph glyph-name="ycircumflex" unicode="&#x177;" horiz-adv-x="607" 
d="M182 574l140 154h155l77 -154h-108l-58 67l-89 -67h-117zM116 -180c-52 0 -117 21 -156 46l54 116c25 -16 49 -25 66 -25c21 0 55 14 60 23l17 13l-98 524h193l38 -319l168 319h198l-305 -528c-65 -112 -149 -169 -235 -169z" />
    <glyph glyph-name="ydieresis" unicode="&#xff;" horiz-adv-x="607" 
d="M271 575c-50 0 -81 36 -81 81c0 54 44 92 92 92c46 0 79 -37 79 -82c0 -52 -44 -91 -90 -91zM496 575c-49 0 -81 36 -81 82c0 53 45 91 92 91s79 -37 79 -81c0 -53 -44 -92 -90 -92zM116 -180c-52 0 -117 21 -156 46l54 116c25 -16 49 -25 66 -25c21 0 55 14 60 23l17 13
l-98 524h193l38 -319l168 319h198l-305 -528c-65 -112 -149 -169 -235 -169z" />
    <glyph glyph-name="ygrave" unicode="&#x1ef3;" horiz-adv-x="607" 
d="M355 574l-124 136l167 28l78 -164h-121zM116 -180c-52 0 -117 21 -156 46l54 116c25 -16 49 -25 66 -25c21 0 55 14 60 23l17 13l-98 524h193l38 -319l168 319h198l-305 -528c-65 -112 -149 -169 -235 -169z" />
    <glyph glyph-name="z" unicode="z" horiz-adv-x="546" 
d="M-18 0l25 133l276 224h-220l33 160h472l-27 -133l-275 -224h230l-34 -160h-480z" />
    <glyph glyph-name="zacute" unicode="&#x17a;" horiz-adv-x="546" 
d="M225 574l146 164l165 -28l-180 -136h-131zM-18 0l25 133l276 224h-220l33 160h472l-27 -133l-275 -224h230l-34 -160h-480z" />
    <glyph glyph-name="zcaron" unicode="&#x17e;" horiz-adv-x="546" 
d="M272 574l-76 154h108l57 -67l90 67h117l-141 -154h-155zM-18 0l25 133l276 224h-220l33 160h472l-27 -133l-275 -224h230l-34 -160h-480z" />
    <glyph glyph-name="zdotaccent" unicode="&#x17c;" horiz-adv-x="546" 
d="M360 575c-50 0 -81 36 -81 81c0 54 44 92 92 92c46 0 79 -37 79 -82c0 -52 -44 -91 -90 -91zM-18 0l25 133l276 224h-220l33 160h472l-27 -133l-275 -224h230l-34 -160h-480z" />
    <glyph glyph-name="a.alt" horiz-adv-x="587" 
d="M345 529c120 0 209 -70 209 -182c0 -31 -7 -55 -68 -347h-185l6 29c-38 -27 -85 -41 -129 -41c-104 0 -177 60 -177 147c0 117 121 190 247 190c39 0 78 -10 114 -28c8 37 6 28 6 32c0 33 -29 47 -82 47c-51 0 -95 -14 -134 -33l-48 128c79 36 160 58 241 58zM334 171
l2 -3l6 28c-21 10 -45 12 -67 12c-46 0 -90 -37 -90 -71c0 -16 16 -25 41 -25c54 0 100 29 108 59z" />
    <glyph glyph-name="aacute.alt" horiz-adv-x="587" 
d="M560 710l-180 -136h-131l146 164zM345 529c120 0 209 -70 209 -182c0 -31 -7 -55 -68 -347h-185l6 29c-38 -27 -85 -41 -129 -41c-104 0 -177 60 -177 147c0 117 121 190 247 190c39 0 78 -10 114 -28c8 37 6 28 6 32c0 33 -29 47 -82 47c-51 0 -95 -14 -134 -33l-48 128
c79 36 160 58 241 58zM334 171l2 -3l6 28c-21 10 -45 12 -67 12c-46 0 -90 -37 -90 -71c0 -16 16 -25 41 -25c54 0 100 29 108 59z" />
    <glyph glyph-name="abreve.alt" horiz-adv-x="587" 
d="M372 575c-62 0 -118 24 -156 71l89 74c22 -27 54 -43 88 -43s74 16 106 43l59 -74c-57 -47 -124 -71 -186 -71zM345 529c120 0 209 -70 209 -182c0 -31 -7 -55 -68 -347h-185l6 29c-38 -27 -85 -41 -129 -41c-104 0 -177 60 -177 147c0 117 121 190 247 190
c39 0 78 -10 114 -28c8 37 6 28 6 32c0 33 -29 47 -82 47c-51 0 -95 -14 -134 -33l-48 128c79 36 160 58 241 58zM334 171l2 -3l6 28c-21 10 -45 12 -67 12c-46 0 -90 -37 -90 -71c0 -16 16 -25 41 -25c54 0 100 29 108 59z" />
    <glyph glyph-name="acircumflex.alt" horiz-adv-x="587" 
d="M389 641l-89 -67h-117l140 154h155l77 -154h-108zM345 529c120 0 209 -70 209 -182c0 -31 -7 -55 -68 -347h-185l6 29c-38 -27 -85 -41 -129 -41c-104 0 -177 60 -177 147c0 117 121 190 247 190c39 0 78 -10 114 -28c8 37 6 28 6 32c0 33 -29 47 -82 47
c-51 0 -95 -14 -134 -33l-48 128c79 36 160 58 241 58zM334 171l2 -3l6 28c-21 10 -45 12 -67 12c-46 0 -90 -37 -90 -71c0 -16 16 -25 41 -25c54 0 100 29 108 59z" />
    <glyph glyph-name="adieresis.alt" horiz-adv-x="587" 
d="M272 575c-50 0 -81 36 -81 81c0 54 44 92 92 92c46 0 79 -37 79 -82c0 -52 -44 -91 -90 -91zM508 748c47 0 79 -37 79 -81c0 -53 -44 -92 -90 -92c-49 0 -81 36 -81 82c0 53 45 91 92 91zM345 529c120 0 209 -70 209 -182c0 -31 -7 -55 -68 -347h-185l6 29
c-38 -27 -85 -41 -129 -41c-104 0 -177 60 -177 147c0 117 121 190 247 190c39 0 78 -10 114 -28c8 37 6 28 6 32c0 33 -29 47 -82 47c-51 0 -95 -14 -134 -33l-48 128c79 36 160 58 241 58zM334 171l2 -3l6 28c-21 10 -45 12 -67 12c-46 0 -90 -37 -90 -71
c0 -16 16 -25 41 -25c54 0 100 29 108 59z" />
    <glyph glyph-name="agrave.alt" horiz-adv-x="587" 
d="M477 574h-121l-124 136l167 28zM345 529c120 0 209 -70 209 -182c0 -31 -7 -55 -68 -347h-185l6 29c-38 -27 -85 -41 -129 -41c-104 0 -177 60 -177 147c0 117 121 190 247 190c39 0 78 -10 114 -28c8 37 6 28 6 32c0 33 -29 47 -82 47c-51 0 -95 -14 -134 -33l-48 128
c79 36 160 58 241 58zM334 171l2 -3l6 28c-21 10 -45 12 -67 12c-46 0 -90 -37 -90 -71c0 -16 16 -25 41 -25c54 0 100 29 108 59z" />
    <glyph glyph-name="amacron.alt" horiz-adv-x="587" 
d="M208 679h369l-22 -106h-369zM345 529c120 0 209 -70 209 -182c0 -31 -7 -55 -68 -347h-185l6 29c-38 -27 -85 -41 -129 -41c-104 0 -177 60 -177 147c0 117 121 190 247 190c39 0 78 -10 114 -28c8 37 6 28 6 32c0 33 -29 47 -82 47c-51 0 -95 -14 -134 -33l-48 128
c79 36 160 58 241 58zM334 171l2 -3l6 28c-21 10 -45 12 -67 12c-46 0 -90 -37 -90 -71c0 -16 16 -25 41 -25c54 0 100 29 108 59z" />
    <glyph glyph-name="aogonek.alt" horiz-adv-x="587" 
d="M457 -66c18 0 34 6 44 16l13 -93c-26 -20 -58 -30 -91 -30c-62 0 -101 37 -101 100c0 27 7 52 22 73h-43l6 29c-38 -27 -85 -41 -129 -41c-104 0 -177 60 -177 147c0 117 121 190 247 190c39 0 78 -10 114 -28c8 37 6 28 6 32c0 33 -29 47 -82 47c-51 0 -95 -14 -134 -33
l-48 128c79 36 160 58 241 58c120 0 209 -70 209 -182c0 -31 -7 -55 -67 -344l6 -3c-30 0 -56 -21 -56 -45c0 -13 7 -21 20 -21zM334 171l2 -3l6 28c-21 10 -45 12 -67 12c-46 0 -90 -37 -90 -71c0 -16 16 -25 41 -25c54 0 100 29 108 59z" />
    <glyph glyph-name="aring.alt" horiz-adv-x="587" 
d="M371 575c-58 0 -99 41 -99 96c0 79 75 146 149 146c58 0 99 -41 99 -96c0 -78 -74 -146 -149 -146zM406 745c-30 0 -60 -27 -60 -58c0 -23 16 -40 40 -40c30 0 60 28 60 59c0 22 -17 39 -40 39zM345 529c120 0 209 -70 209 -182c0 -31 -7 -55 -68 -347h-185l6 29
c-38 -27 -85 -41 -129 -41c-104 0 -177 60 -177 147c0 117 121 190 247 190c39 0 78 -10 114 -28c8 37 6 28 6 32c0 33 -29 47 -82 47c-51 0 -95 -14 -134 -33l-48 128c79 36 160 58 241 58zM334 171l2 -3l6 28c-21 10 -45 12 -67 12c-46 0 -90 -37 -90 -71
c0 -16 16 -25 41 -25c54 0 100 29 108 59z" />
    <glyph glyph-name="atilde.alt" horiz-adv-x="587" 
d="M327 612c-26 0 -46 -20 -58 -49l-86 27c30 95 70 134 137 134c60 0 104 -41 124 -41c26 0 47 21 58 49l87 -28c-30 -95 -71 -133 -137 -133c-62 0 -104 41 -125 41zM345 529c120 0 209 -70 209 -182c0 -31 -7 -55 -68 -347h-185l6 29c-38 -27 -85 -41 -129 -41
c-104 0 -177 60 -177 147c0 117 121 190 247 190c39 0 78 -10 114 -28c8 37 6 28 6 32c0 33 -29 47 -82 47c-51 0 -95 -14 -134 -33l-48 128c79 36 160 58 241 58zM334 171l2 -3l6 28c-21 10 -45 12 -67 12c-46 0 -90 -37 -90 -71c0 -16 16 -25 41 -25c54 0 100 29 108 59z
" />
    <glyph glyph-name="zero" unicode="0" horiz-adv-x="719" 
d="M315 -12c-166 0 -269 111 -269 277c0 229 168 434 392 434c167 0 270 -111 270 -277c0 -228 -168 -434 -393 -434zM327 164c103 0 183 136 183 250c0 67 -30 109 -83 109c-104 0 -183 -135 -183 -250c0 -67 30 -109 83 -109z" />
    <glyph glyph-name="one" unicode="1" horiz-adv-x="455" 
d="M142 0l99 469l-127 -70l-51 134l260 154h156l-143 -687h-194z" />
    <glyph glyph-name="two" unicode="2" horiz-adv-x="629" 
d="M-9 0l30 157l291 188c63 40 122 87 122 140c0 25 -22 38 -56 38c-66 0 -120 -33 -182 -86l-103 132c94 90 194 130 301 130c149 0 240 -82 240 -197c0 -128 -82 -206 -204 -276l-105 -53h251l-36 -173h-549z" />
    <glyph glyph-name="three" unicode="3" horiz-adv-x="617" 
d="M263 -13c-137 0 -227 51 -279 119l127 119c41 -48 100 -65 152 -65c64 0 121 32 121 77c0 20 -19 28 -92 27l-90 -1l34 162h76c64 0 104 25 112 63c5 27 -21 38 -71 38c-63 0 -120 -32 -171 -73l-90 130c74 69 168 116 293 116c157 0 242 -70 242 -167
c0 -93 -65 -155 -160 -182c60 -14 110 -61 110 -134c0 -143 -151 -229 -314 -229z" />
    <glyph glyph-name="four" unicode="4" horiz-adv-x="666" 
d="M309 0l26 122h-330l12 146l389 418h240l-84 -404h83l-33 -160h-83l-26 -122h-194zM223 282h145l45 206z" />
    <glyph glyph-name="five" unicode="5" horiz-adv-x="629" 
d="M258 -13c-127 0 -210 44 -269 108l130 126c42 -43 96 -67 149 -67c69 0 132 45 132 99c0 28 -26 43 -74 43c-54 0 -99 -19 -137 -45l-121 53l89 383h489l-36 -173h-311l-28 -94c37 23 80 34 125 34c111 0 197 -65 197 -180c0 -177 -147 -287 -335 -287z" />
    <glyph glyph-name="six" unicode="6" horiz-adv-x="659" 
d="M418 454c118 0 203 -70 203 -183c0 -164 -146 -283 -319 -283c-178 0 -263 100 -263 252c0 251 168 459 414 459c94 0 162 -30 216 -73l-109 -138c-35 30 -69 42 -115 42c-72 0 -126 -44 -163 -108c42 21 92 32 136 32zM299 152c63 0 121 47 121 100c0 32 -32 47 -71 47
c-46 0 -90 -27 -119 -66v-19c0 -45 19 -62 69 -62z" />
    <glyph glyph-name="seven" unicode="7" horiz-adv-x="608" 
d="M42 0l367 514h-317l36 173h542l-28 -146l-377 -541h-223z" />
    <glyph glyph-name="eight" unicode="8" horiz-adv-x="636" 
d="M274 -12c-149 0 -264 63 -264 176c0 97 69 161 161 197c-42 22 -76 62 -76 125c0 144 154 213 302 213c139 0 249 -62 249 -168c0 -89 -55 -145 -140 -182c56 -27 91 -76 91 -139c0 -150 -159 -222 -323 -222zM339 420c55 3 114 43 114 85c0 21 -23 35 -64 35
c-57 0 -111 -38 -111 -81c0 -23 26 -37 61 -39zM283 148c62 0 126 37 126 84c0 24 -35 38 -76 40c-59 -3 -125 -40 -125 -87c0 -24 28 -37 75 -37z" />
    <glyph glyph-name="nine" unicode="9" horiz-adv-x="660" 
d="M393 699c178 0 263 -100 263 -252c0 -251 -168 -459 -414 -459c-94 0 -162 30 -216 73l109 138c35 -30 69 -42 115 -42c72 0 126 44 163 108c-42 -21 -92 -32 -136 -32c-118 0 -203 70 -203 183c0 164 146 283 319 283zM346 388c46 0 90 27 119 66v19c0 45 -19 62 -69 62
c-63 0 -121 -47 -121 -100c0 -32 32 -47 71 -47z" />
    <glyph glyph-name="asterisk" unicode="*" horiz-adv-x="389" 
d="M209 325c-26 0 -43 20 -38 43c7 32 35 76 46 108c-30 -20 -65 -59 -95 -75c-23 -12 -49 -4 -57 19s4 51 27 62c30 16 79 20 111 32c-28 12 -74 17 -98 33c-17 11 -19 39 -1 62s48 31 65 19c24 -16 43 -56 64 -76c2 32 -9 76 -2 108c5 23 30 43 56 43s43 -20 38 -43
c-7 -32 -37 -76 -49 -108c30 20 67 59 97 75c22 12 49 4 57 -19s-5 -51 -27 -62c-30 -16 -80 -20 -113 -32c29 -12 76 -17 100 -33c17 -11 18 -39 1 -62c-18 -23 -48 -31 -65 -19c-24 16 -44 56 -65 76c-1 -32 11 -76 4 -108c-5 -23 -30 -43 -56 -43z" />
    <glyph glyph-name="backslash" unicode="\" horiz-adv-x="489" 
d="M253 -74l-170 817h196l170 -817h-196z" />
    <glyph glyph-name="colon" unicode=":" horiz-adv-x="315" 
d="M184 313c-64 0 -106 46 -106 106c0 71 63 125 129 125c60 0 102 -47 102 -104c0 -69 -61 -127 -125 -127zM116 -12c-63 0 -105 46 -105 105c0 72 62 126 129 126c59 0 101 -47 101 -103c0 -70 -61 -128 -125 -128z" />
    <glyph glyph-name="comma" unicode="," horiz-adv-x="311" 
d="M67 -160l-63 58c40 27 74 64 96 97c-51 0 -91 38 -91 95c0 69 62 129 125 129c62 0 100 -49 100 -121c0 -104 -77 -193 -167 -258z" />
    <glyph glyph-name="ellipsis" unicode="&#x2026;" horiz-adv-x="915" 
d="M115 -12c-63 0 -105 46 -105 105c0 72 62 126 129 126c59 0 101 -47 101 -103c0 -70 -61 -128 -125 -128zM415 -12c-63 0 -105 46 -105 105c0 72 62 126 129 126c59 0 101 -47 101 -103c0 -70 -61 -128 -125 -128zM715 -12c-63 0 -105 46 -105 105c0 72 62 126 129 126
c59 0 101 -47 101 -103c0 -70 -61 -128 -125 -128z" />
    <glyph glyph-name="exclam" unicode="!" horiz-adv-x="328" 
d="M98 274l43 413h215l-128 -413h-130zM122 -12c-63 0 -105 46 -105 105c0 72 62 126 129 126c59 0 101 -47 101 -103c0 -70 -61 -128 -125 -128z" />
    <glyph glyph-name="exclamdown" unicode="&#xa1;" horiz-adv-x="328" 
d="M206 529c63 0 105 -46 105 -105c0 -72 -62 -126 -129 -126c-59 0 -101 47 -101 103c0 70 61 128 125 128zM230 243l-43 -413h-215l128 413h130z" />
    <glyph glyph-name="numbersign" unicode="#" horiz-adv-x="679" 
d="M650 404h-83l-57 -123h83l-61 -134h-83l-68 -147h-138l68 147h-89l-68 -147h-138l68 147h-81l61 134h81l57 123h-85l61 134h85l69 149h138l-69 -149h89l69 149h138l-69 -149h83zM372 281l57 123h-89l-57 -123h89z" />
    <glyph glyph-name="period" unicode="." horiz-adv-x="313" 
d="M115 -12c-63 0 -105 46 -105 105c0 72 62 126 129 126c59 0 101 -47 101 -103c0 -70 -61 -128 -125 -128z" />
    <glyph glyph-name="question" unicode="?" horiz-adv-x="507" 
d="M159 264l30 150c69 0 152 34 152 74c0 27 -23 38 -58 38c-38 0 -84 -21 -112 -44l-92 119c73 62 163 98 253 98c127 0 207 -71 207 -174c0 -113 -89 -202 -197 -227l-7 -34h-176zM220 -12c-63 0 -105 46 -105 105c0 72 62 126 129 126c59 0 101 -47 101 -103
c0 -70 -61 -128 -125 -128z" />
    <glyph glyph-name="questiondown" unicode="&#xbf;" horiz-adv-x="507" 
d="M287 529c63 0 105 -46 105 -105c0 -72 -62 -126 -129 -126c-59 0 -101 47 -101 103c0 70 61 128 125 128zM348 253l-30 -150c-69 0 -152 -34 -152 -74c0 -27 23 -38 58 -38c38 0 84 21 112 44l92 -119c-73 -62 -163 -98 -253 -98c-127 0 -207 71 -207 174
c0 113 89 202 197 227l7 34h176z" />
    <glyph glyph-name="quotedbl" unicode="&#x22;" horiz-adv-x="584" 
d="M139 370c-9 59 -18 122 -18 174c0 92 45 161 122 161c46 0 78 -34 78 -79c0 -57 -73 -185 -114 -256h-68zM421 370c-9 59 -18 122 -18 174c0 92 45 161 122 161c46 0 78 -34 78 -79c0 -57 -73 -185 -114 -256h-68z" />
    <glyph glyph-name="quotesingle" unicode="'" horiz-adv-x="302" 
d="M139 370c-9 59 -18 122 -18 174c0 92 45 161 122 161c46 0 78 -34 78 -79c0 -57 -73 -185 -114 -256h-68z" />
    <glyph glyph-name="semicolon" unicode=";" horiz-adv-x="314" 
d="M202 403c-63 0 -105 46 -105 105c0 72 62 126 129 126c59 0 101 -47 101 -103c0 -70 -61 -128 -125 -128zM70 -160l-63 58c40 27 74 64 96 97c-51 0 -91 38 -91 95c0 69 62 129 125 129c62 0 100 -49 100 -121c0 -104 -77 -193 -167 -258z" />
    <glyph glyph-name="slash" unicode="/" horiz-adv-x="497" 
d="M-98 -74l510 817h204l-510 -817h-204z" />
    <glyph glyph-name="underscore" unicode="_" horiz-adv-x="592" 
d="M-89 -159l21 98h596l-21 -98h-596z" />
    <glyph glyph-name="braceleft" unicode="{" horiz-adv-x="428" 
d="M296 -166c-155 10 -224 60 -224 151c0 51 32 141 32 181c0 34 -21 45 -75 45l10 110c68 0 107 32 119 89l20 106c25 121 102 170 284 182l5 -115c-104 -12 -135 -35 -149 -98l-22 -115c-12 -57 -39 -89 -102 -109c36 -12 58 -43 58 -86c0 -44 -32 -141 -32 -176
c0 -36 25 -43 103 -53z" />
    <glyph glyph-name="braceright" unicode="}" horiz-adv-x="428" 
d="M-32 -166l-5 114c102 12 136 35 149 99l23 114c12 58 39 90 102 110c-36 12 -58 43 -58 86c0 38 32 144 32 176c0 35 -24 42 -103 52l26 112c155 -10 225 -60 225 -151c0 -44 -33 -151 -33 -181c0 -34 21 -44 76 -44l-10 -110c-66 0 -107 -32 -119 -89l-20 -107
c-25 -120 -101 -169 -285 -181z" />
    <glyph glyph-name="bracketleft" unicode="[" horiz-adv-x="399" 
d="M-23 -160l177 849h295l-25 -121h-148l-127 -607h148l-25 -121h-295z" />
    <glyph glyph-name="bracketright" unicode="]" horiz-adv-x="398" 
d="M-48 -160l25 121h148l127 607h-148l25 121h295l-177 -849h-295z" />
    <glyph glyph-name="parenleft" unicode="(" horiz-adv-x="405" 
d="M194 -166c-100 76 -158 194 -158 334c0 217 130 421 326 536l86 -111c-144 -123 -229 -271 -229 -441c0 -80 25 -150 84 -224z" />
    <glyph glyph-name="parenright" unicode=")" horiz-adv-x="405" 
d="M46 -174l-86 112c144 122 229 267 229 441c0 80 -26 150 -84 224l109 93c100 -76 158 -193 158 -332c0 -220 -131 -423 -326 -538z" />
    <glyph glyph-name="emdash" unicode="&#x2014;" horiz-adv-x="873" 
d="M26 200l33 156h796l-33 -156h-796z" />
    <glyph glyph-name="endash" unicode="&#x2013;" horiz-adv-x="568" 
d="M26 200l33 156h491l-33 -156h-491z" />
    <glyph glyph-name="hyphen" unicode="-" horiz-adv-x="361" 
d="M26 199l33 158h284l-33 -158h-284z" />
    <glyph glyph-name="quotedblleft" unicode="&#x201c;" horiz-adv-x="612" 
d="M249 700l63 -58c-40 -27 -74 -64 -96 -97c51 0 91 -38 91 -95c0 -69 -62 -129 -125 -129c-62 0 -100 49 -100 121c0 104 77 193 167 258zM549 700l63 -58c-40 -27 -74 -64 -96 -97c51 0 91 -38 91 -95c0 -69 -62 -129 -125 -129c-62 0 -100 49 -100 121
c0 104 77 193 167 258z" />
    <glyph glyph-name="quotedblright" unicode="&#x201d;" horiz-adv-x="612" 
d="M169 326l-63 58c40 27 74 64 96 97c-51 0 -91 38 -91 95c0 69 62 129 125 129c62 0 100 -49 100 -121c0 -104 -77 -193 -167 -258zM469 326l-63 58c40 27 74 64 96 97c-51 0 -91 38 -91 95c0 69 62 129 125 129c62 0 100 -49 100 -121c0 -104 -77 -193 -167 -258z" />
    <glyph glyph-name="quoteleft" unicode="&#x2018;" horiz-adv-x="312" 
d="M251 709l63 -58c-40 -27 -74 -64 -96 -97c51 0 91 -38 91 -95c0 -69 -62 -129 -125 -129c-62 0 -100 49 -100 121c0 104 77 193 167 258z" />
    <glyph glyph-name="quoteright" unicode="&#x2019;" horiz-adv-x="312" 
d="M169 326l-63 58c40 27 74 64 96 97c-51 0 -91 38 -91 95c0 69 62 129 125 129c62 0 100 -49 100 -121c0 -104 -77 -193 -167 -258z" />
    <glyph glyph-name="space" unicode=" " horiz-adv-x="272" 
 />
    <glyph glyph-name="cent" unicode="&#xa2;" horiz-adv-x="556" 
d="M392 195l113 -114c-56 -52 -122 -84 -198 -91l-13 -64h-110l15 72c-104 28 -174 117 -174 224c0 150 136 276 284 302l13 65h110l-13 -65c68 -13 117 -50 149 -97l-140 -92c-15 23 -48 34 -74 34c-75 0 -148 -76 -148 -144c0 -44 32 -77 78 -77c39 0 84 23 108 47z" />
    <glyph glyph-name="dollar" unicode="$" horiz-adv-x="647" 
d="M379 424c160 -37 232 -75 232 -184c0 -144 -127 -240 -293 -251l-13 -63h-110l14 68c-93 15 -176 56 -232 115l126 119c58 -55 133 -79 196 -79c78 0 115 37 115 67c0 22 -19 24 -98 44c-131 33 -234 60 -234 188c0 130 107 234 273 249l13 62h110l-13 -65
c78 -11 148 -42 202 -93l-116 -128c-57 49 -127 65 -171 65c-67 0 -100 -38 -100 -67c0 -25 24 -30 99 -47z" />
    <glyph glyph-name="Euro" unicode="&#x20ac;" horiz-adv-x="711" 
d="M377 164c51 0 118 31 160 76l123 -136c-76 -68 -197 -116 -298 -116c-153 0 -284 109 -309 259h-66l16 77h47c1 16 4 32 8 48h-45l16 77h56c68 142 227 250 394 250c118 0 217 -54 272 -126l-160 -114c-22 37 -64 64 -121 64c-60 0 -118 -30 -161 -74h186l-16 -77h-219
c-6 -16 -11 -32 -13 -48h222l-16 -77h-197c20 -53 70 -83 121 -83z" />
    <glyph glyph-name="sterling" unicode="&#xa3;" horiz-adv-x="678" 
d="M335 250l-22 -107h318l-30 -143h-613l14 76l114 67l23 107h-74l19 87h73l28 134c29 138 145 228 284 228c100 0 192 -53 229 -120l-143 -109c-12 35 -43 53 -71 53c-54 0 -102 -41 -112 -88l-20 -98h137l-19 -87h-135z" />
    <glyph glyph-name="yen" unicode="&#xa5;" horiz-adv-x="709" 
d="M804 687l-288 -370h99l-18 -87h-149l-3 -4l-11 -49h152l-18 -87h-153l-20 -90h-194l20 90h-149l18 87h150l11 49l-1 4h-149l18 87h99l-135 370h180l106 -293l217 293h218z" />
    <glyph glyph-name="plus" unicode="+" horiz-adv-x="609" 
d="M585 408l-31 -149h-169l-36 -175h-160l36 175h-170l31 149h171l36 175h160l-36 -175h168z" />
    <glyph glyph-name="minus" unicode="&#x2212;" horiz-adv-x="609" 
d="M55 259l31 149h499l-31 -149h-499z" />
    <glyph glyph-name="multiply" unicode="&#xd7;" horiz-adv-x="574" 
d="M558 457l-145 -121l98 -122l-132 -113l-99 123l-144 -120l-89 106l146 122l-98 122l132 113l99 -123l143 119z" />
    <glyph glyph-name="divide" unicode="&#xf7;" horiz-adv-x="609" 
d="M357 442c-54 0 -91 40 -91 92c0 62 53 104 107 104c52 0 87 -41 87 -90c0 -58 -49 -106 -103 -106zM55 260l31 149h499l-31 -149h-499zM271 30c-54 0 -90 40 -90 91c0 63 51 105 106 105c51 0 88 -40 88 -89c0 -58 -50 -107 -104 -107z" />
    <glyph glyph-name="equal" unicode="=" horiz-adv-x="609" 
d="M81 382l31 149h499l-31 -149h-499zM32 148l31 149h499l-31 -149h-499z" />
    <glyph glyph-name="greater" unicode="&#x3e;" horiz-adv-x="599" 
d="M32 78l30 151l355 114l-306 116l29 150l436 -189l-30 -153z" />
    <glyph glyph-name="less" unicode="&#x3c;" horiz-adv-x="599" 
d="M494 78l-435 189l30 153l514 189l-29 -150l-356 -116l306 -114z" />
    <glyph glyph-name="asciitilde" unicode="~" horiz-adv-x="459" 
d="M318 290c-62 0 -104 41 -125 41c-26 0 -46 -20 -58 -49l-86 27c30 95 70 134 137 134c60 0 104 -41 124 -41c26 0 47 21 58 49l87 -28c-30 -95 -71 -133 -137 -133z" />
    <glyph glyph-name="percent" unicode="%" horiz-adv-x="865" 
d="M239 338c-97 0 -156 63 -156 149c0 113 89 207 205 207c101 0 158 -65 158 -150c0 -113 -90 -206 -207 -206zM69 0l626 687h137l-626 -687h-137zM237 445c52 0 90 57 90 104c0 25 -14 37 -36 37c-52 0 -89 -57 -89 -104c0 -25 14 -37 35 -37zM611 -11
c-100 0 -158 65 -158 150c0 112 91 207 207 207c99 0 156 -65 156 -151c0 -111 -90 -206 -205 -206zM608 97c52 0 90 57 90 103c0 26 -15 38 -36 38c-53 0 -90 -56 -90 -104c0 -25 14 -37 36 -37z" />
    <glyph glyph-name="perthousand" unicode="&#x2030;" horiz-adv-x="1259" 
d="M239 338c-97 0 -156 63 -156 149c0 113 89 207 205 207c101 0 158 -65 158 -150c0 -113 -90 -206 -207 -206zM69 0l626 687h137l-626 -687h-137zM237 445c52 0 90 57 90 104c0 25 -14 37 -36 37c-52 0 -89 -57 -89 -104c0 -25 14 -37 35 -37zM611 -11
c-100 0 -158 65 -158 150c0 112 91 207 207 207c99 0 156 -65 156 -151c0 -111 -90 -206 -205 -206zM1005 -11c-100 0 -158 65 -158 150c0 112 91 207 207 207c99 0 156 -65 156 -151c0 -111 -90 -206 -205 -206zM608 97c52 0 90 57 90 103c0 26 -15 38 -36 38
c-53 0 -90 -56 -90 -104c0 -25 14 -37 36 -37zM1002 97c52 0 90 57 90 103c0 26 -15 38 -36 38c-53 0 -90 -56 -90 -104c0 -25 14 -37 36 -37z" />
    <glyph glyph-name="at" unicode="@" horiz-adv-x="880" 
d="M346 -116c-191 0 -311 125 -311 295c0 255 254 497 515 497c193 0 309 -123 309 -276c0 -164 -127 -329 -280 -329c-72 0 -104 31 -114 75c-46 -47 -100 -73 -153 -73c-87 0 -136 54 -136 137c0 146 139 299 275 299c61 0 98 -28 115 -65l22 52l153 -12
c-69 -172 -108 -251 -108 -286c0 -22 13 -35 38 -35c85 0 142 137 142 234c0 137 -102 237 -274 237c-239 0 -460 -218 -460 -448c0 -151 106 -261 279 -261c81 0 151 22 225 61l15 -33c-79 -44 -163 -69 -252 -69zM397 202c61 0 116 73 116 129c0 30 -18 49 -49 49
c-65 0 -122 -67 -122 -126c0 -33 21 -52 55 -52z" />
    <glyph glyph-name="ampersand" unicode="&#x26;" horiz-adv-x="682" 
d="M672 300c-44 -59 -87 -111 -130 -154c23 -32 49 -67 78 -106l-157 -57c-15 22 -30 43 -44 64c-64 -39 -129 -59 -201 -59c-128 0 -213 63 -213 170c0 125 74 184 192 233c-17 32 -26 56 -26 85c0 128 115 220 237 220c116 0 190 -65 190 -159c0 -103 -73 -150 -193 -204
c14 -21 32 -45 52 -73c34 37 65 78 91 119zM410 567c-39 0 -82 -42 -82 -84c0 -14 3 -27 11 -43c62 22 103 46 103 98c0 18 -12 29 -32 29zM250 129c28 0 59 12 91 31c-30 43 -54 81 -75 113c-41 -24 -70 -55 -70 -98c0 -30 23 -46 54 -46z" />
    <glyph glyph-name="bar" unicode="|" horiz-adv-x="313" 
d="M23 -74l170 817h129l-170 -817h-129z" />
    <glyph glyph-name="asciicircum" unicode="^" horiz-adv-x="486" 
d="M68 413l200 274h129l85 -274h-125l-43 160l-112 -160h-134z" />
    <glyph glyph-name="uni0326" unicode="&#x326;" horiz-adv-x="0" 
d="M-275 -306l-48 46c30 20 56 48 73 72c-48 0 -67 32 -67 73c0 50 42 92 88 92c47 0 77 -39 77 -94c0 -76 -57 -142 -123 -189z" />
    <glyph glyph-name="acute" unicode="&#xb4;" horiz-adv-x="409" 
d="M129 574l146 164l165 -28l-180 -136h-131z" />
    <glyph glyph-name="breve" unicode="&#x2d8;" horiz-adv-x="468" 
d="M300 575c-62 0 -118 24 -156 71l89 74c22 -27 54 -43 88 -43s74 16 106 43l59 -74c-57 -47 -124 -71 -186 -71z" />
    <glyph glyph-name="caron" unicode="&#x2c7;" horiz-adv-x="498" 
d="M237 574l-76 154h108l57 -67l90 67h117l-141 -154h-155z" />
    <glyph glyph-name="cedilla" unicode="&#xb8;" horiz-adv-x="337" 
d="M140 -44c34 -7 56 -32 56 -65c0 -60 -52 -91 -120 -91c-44 0 -79 17 -101 34l35 59c15 -14 33 -18 47 -18c33 0 57 13 57 32c0 9 -5 15 -14 15c-11 0 -25 -5 -36 -13l-26 29l44 73h93z" />
    <glyph glyph-name="circumflex" unicode="&#x2c6;" horiz-adv-x="498" 
d="M129 574l140 154h155l77 -154h-108l-58 67l-89 -67h-117z" />
    <glyph glyph-name="dieresis" unicode="&#xa8;" horiz-adv-x="524" 
d="M229 575c-50 0 -81 36 -81 81c0 54 44 92 92 92c46 0 79 -37 79 -82c0 -52 -44 -91 -90 -91zM454 575c-49 0 -81 36 -81 82c0 53 45 91 92 91s79 -37 79 -81c0 -53 -44 -92 -90 -92z" />
    <glyph glyph-name="dotaccent" unicode="&#x2d9;" horiz-adv-x="299" 
d="M229 575c-50 0 -81 36 -81 81c0 54 44 92 92 92c46 0 79 -37 79 -82c0 -52 -44 -91 -90 -91z" />
    <glyph glyph-name="grave" unicode="`" horiz-adv-x="399" 
d="M281 574l-124 136l167 28l78 -164h-121z" />
    <glyph glyph-name="hungarumlaut" unicode="&#x2dd;" horiz-adv-x="667" 
d="M129 574l146 164l165 -28l-180 -136h-131zM387 574l146 164l165 -28l-180 -136h-131z" />
    <glyph glyph-name="macron" unicode="&#xaf;" horiz-adv-x="495" 
d="M128 573l22 106h369l-22 -106h-369z" />
    <glyph glyph-name="ogonek" unicode="&#x2db;" horiz-adv-x="336" 
d="M98 -173c-62 0 -101 37 -101 100c0 48 23 88 67 115l104 -42c-30 0 -56 -21 -56 -45c0 -13 7 -21 20 -21c18 0 34 6 44 16l13 -93c-26 -20 -58 -30 -91 -30z" />
    <glyph glyph-name="ring" unicode="&#x2da;" horiz-adv-x="368" 
d="M250 575c-58 0 -99 41 -99 96c0 79 75 146 149 146c58 0 99 -41 99 -96c0 -78 -74 -146 -149 -146zM265 647c30 0 60 28 60 59c0 22 -17 39 -40 39c-30 0 -60 -27 -60 -58c0 -23 16 -40 40 -40z" />
    <glyph glyph-name="tilde" unicode="&#x2dc;" horiz-adv-x="440" 
d="M367 571c-62 0 -104 41 -125 41c-26 0 -46 -20 -58 -49l-86 27c30 95 70 134 137 134c60 0 104 -41 124 -41c26 0 47 21 58 49l87 -28c-30 -95 -71 -133 -137 -133z" />
    <glyph glyph-name="ascender" 
d="M-2 0l145 699h193l-145 -699h-193z" />
    <glyph glyph-name="descender" 
d="M-38 -172l143 689h193l-143 -689h-193z" />
    </font>
</defs>
</svg>
